<svg width="200" height="200" viewBox="0 0 200 200" fill="none" xmlns="http://www.w3.org/2000/svg">
<rect width="200" height="200" rx="20" fill="white"/>
<path d="M37.44 95V71.4H28.16V67H51.92V71.4H42.64V95H37.44ZM55.8225 95V67H67.3425C69.8225 67 71.9425 67.4 73.7025 68.2C75.4892 69 76.8625 70.1467 77.8225 71.64C78.7825 73.1333 79.2625 74.9067 79.2625 76.96C79.2625 79.0133 78.7825 80.7867 77.8225 82.28C76.8625 83.7467 75.4892 84.88 73.7025 85.68C71.9425 86.4533 69.8225 86.84 67.3425 86.84H58.7025L61.0225 84.48V95H55.8225ZM74.1425 95L67.0625 84.84H72.6225L79.7425 95H74.1425ZM61.0225 85.04L58.7025 82.56H67.1025C69.3958 82.56 71.1158 82.0667 72.2625 81.08C73.4358 80.0933 74.0225 78.72 74.0225 76.96C74.0225 75.1733 73.4358 73.8 72.2625 72.84C71.1158 71.88 69.3958 71.4 67.1025 71.4H58.7025L61.0225 68.84V85.04ZM81.1203 95L93.7203 67H98.8403L111.48 95H106.04L95.2003 69.76H97.2803L86.4803 95H81.1203ZM86.9203 88.52L88.3203 84.44H103.44L104.84 88.52H86.9203ZM127.611 95.4C125.477 95.4 123.491 95.0533 121.651 94.36C119.837 93.64 118.251 92.64 116.891 91.36C115.557 90.0533 114.517 88.52 113.771 86.76C113.024 85 112.651 83.08 112.651 81C112.651 78.92 113.024 77 113.771 75.24C114.517 73.48 115.571 71.96 116.931 70.68C118.291 69.3733 119.877 68.3733 121.691 67.68C123.504 66.96 125.491 66.6 127.651 66.6C129.944 66.6 132.037 67 133.931 67.8C135.824 68.5733 137.424 69.7333 138.731 71.28L135.371 74.44C134.357 73.3467 133.224 72.5333 131.971 72C130.717 71.44 129.357 71.16 127.891 71.16C126.424 71.16 125.077 71.4 123.851 71.88C122.651 72.36 121.597 73.04 120.691 73.92C119.811 74.8 119.117 75.84 118.611 77.04C118.131 78.24 117.891 79.56 117.891 81C117.891 82.44 118.131 83.76 118.611 84.96C119.117 86.16 119.811 87.2 120.691 88.08C121.597 88.96 122.651 89.64 123.851 90.12C125.077 90.6 126.424 90.84 127.891 90.84C129.357 90.84 130.717 90.5733 131.971 90.04C133.224 89.48 134.357 88.64 135.371 87.52L138.731 90.72C137.424 92.24 135.824 93.4 133.931 94.2C132.037 95 129.931 95.4 127.611 95.4ZM148.353 88.4L148.073 82.24L162.753 67H168.593L156.393 79.96L153.513 83.12L148.353 88.4ZM143.713 95V67H148.913V95H143.713ZM163.233 95L152.513 82.24L155.953 78.44L169.313 95H163.233Z" fill="#05526B"/>
<g filter="url(#filter0_d_81_35)">
<path d="M17 129C28 110.333 39 110.333 50 129C61 147.667 72 147.667 83 129C94 110.333 105 110.333 116 129C127 147.667 138 147.667 149 129C160 110.333 171 110.333 182 129" stroke="#076585" stroke-width="3"/>
</g>
<defs>
<filter id="filter0_d_81_35" x="9.70764" y="111.5" width="179.585" height="43" filterUnits="userSpaceOnUse" color-interpolation-filters="sRGB">
<feFlood flood-opacity="0" result="BackgroundImageFix"/>
<feColorMatrix in="SourceAlpha" type="matrix" values="0 0 0 0 0 0 0 0 0 0 0 0 0 0 0 0 0 0 127 0" result="hardAlpha"/>
<feOffset dy="4"/>
<feGaussianBlur stdDeviation="3"/>
<feComposite in2="hardAlpha" operator="out"/>
<feColorMatrix type="matrix" values="0 0 0 0 0.0117647 0 0 0 0 0.203922 0 0 0 0 0.270588 0 0 0 0.35 0"/>
<feBlend mode="normal" in2="BackgroundImageFix" result="effect1_dropShadow_81_35"/>
<feBlend mode="normal" in="SourceGraphic" in2="effect1_dropShadow_81_35" result="shape"/>
</filter>
</defs>
</svg>
