<svg width="200" height="200" viewBox="0 0 200 200" fill="none" xmlns="http://www.w3.org/2000/svg">
<rect width="200" height="200" rx="20" fill="#033445"/>
<path d="M62.664 96V81.84H57.096V79.2H71.352V81.84H65.784V96H62.664ZM73.6935 96V79.2H80.6055C82.0935 79.2 83.3655 79.44 84.4215 79.92C85.4935 80.4 86.3175 81.088 86.8935 81.984C87.4695 82.88 87.7575 83.944 87.7575 85.176C87.7575 86.408 87.4695 87.472 86.8935 88.368C86.3175 89.248 85.4935 89.928 84.4215 90.408C83.3655 90.872 82.0935 91.104 80.6055 91.104H75.4215L76.8135 89.688V96H73.6935ZM84.6855 96L80.4375 89.904H83.7735L88.0455 96H84.6855ZM76.8135 90.024L75.4215 88.536H80.4615C81.8375 88.536 82.8695 88.24 83.5575 87.648C84.2615 87.056 84.6135 86.232 84.6135 85.176C84.6135 84.104 84.2615 83.28 83.5575 82.704C82.8695 82.128 81.8375 81.84 80.4615 81.84H75.4215L76.8135 80.304V90.024ZM88.8722 96L96.4322 79.2H99.5042L107.088 96H103.824L97.3202 80.856H98.5682L92.0882 96H88.8722ZM92.3522 92.112L93.1922 89.664H102.264L103.104 92.112H92.3522ZM116.766 96.24C115.486 96.24 114.294 96.032 113.19 95.616C112.102 95.184 111.15 94.584 110.334 93.816C109.534 93.032 108.91 92.112 108.462 91.056C108.014 90 107.79 88.848 107.79 87.6C107.79 86.352 108.014 85.2 108.462 84.144C108.91 83.088 109.542 82.176 110.358 81.408C111.174 80.624 112.126 80.024 113.214 79.608C114.302 79.176 115.494 78.96 116.79 78.96C118.166 78.96 119.422 79.2 120.558 79.68C121.694 80.144 122.654 80.84 123.438 81.768L121.422 83.664C120.814 83.008 120.134 82.52 119.382 82.2C118.63 81.864 117.814 81.696 116.934 81.696C116.054 81.696 115.246 81.84 114.51 82.128C113.79 82.416 113.158 82.824 112.614 83.352C112.086 83.88 111.67 84.504 111.366 85.224C111.078 85.944 110.934 86.736 110.934 87.6C110.934 88.464 111.078 89.256 111.366 89.976C111.67 90.696 112.086 91.32 112.614 91.848C113.158 92.376 113.79 92.784 114.51 93.072C115.246 93.36 116.054 93.504 116.934 93.504C117.814 93.504 118.63 93.344 119.382 93.024C120.134 92.688 120.814 92.184 121.422 91.512L123.438 93.432C122.654 94.344 121.694 95.04 120.558 95.52C119.422 96 118.158 96.24 116.766 96.24ZM129.212 92.04L129.044 88.344L137.852 79.2H141.356L134.036 86.976L132.308 88.872L129.212 92.04ZM126.428 96V79.2H129.548V96H126.428ZM138.14 96L131.708 88.344L133.772 86.064L141.788 96H138.14Z" fill="#CDE0E7"/>
<g filter="url(#filter0_d_81_12)">
<path d="M26 114.5C35.8 97.8333 45.6 97.8333 55.4 114.5C65.2 131.167 75 131.167 84.8 114.5C94.6 97.8333 104.4 97.8333 114.2 114.5C124 131.167 133.8 131.167 143.6 114.5C153.4 97.8333 163.2 97.8333 173 114.5" stroke="#CDE0E7" stroke-width="2"/>
</g>
<defs>
<filter id="filter0_d_81_12" x="19.138" y="99" width="160.724" height="39" filterUnits="userSpaceOnUse" color-interpolation-filters="sRGB">
<feFlood flood-opacity="0" result="BackgroundImageFix"/>
<feColorMatrix in="SourceAlpha" type="matrix" values="0 0 0 0 0 0 0 0 0 0 0 0 0 0 0 0 0 0 127 0" result="hardAlpha"/>
<feOffset dy="4"/>
<feGaussianBlur stdDeviation="3"/>
<feComposite in2="hardAlpha" operator="out"/>
<feColorMatrix type="matrix" values="0 0 0 0 0.490196 0 0 0 0 0.639216 0 0 0 0 0.721569 0 0 0 0.69 0"/>
<feBlend mode="normal" in2="BackgroundImageFix" result="effect1_dropShadow_81_12"/>
<feBlend mode="normal" in="SourceGraphic" in2="effect1_dropShadow_81_12" result="shape"/>
</filter>
</defs>
</svg>
