<svg width="150" height="150" viewBox="0 0 150 150" fill="none" xmlns="http://www.w3.org/2000/svg">
<path d="M0 10C0 4.47715 4.47715 0 10 0H140C145.523 0 150 4.47715 150 10V140C150 145.523 145.523 150 140 150H10C4.47715 150 0 145.523 0 140V10Z" fill="#E6E6E6"/>
<path d="M71.6468 15.7812C72.5449 13.0172 76.4551 13.0172 77.3532 15.7812L86.287 43.2766C86.6886 44.5127 87.8405 45.3496 89.1402 45.3496H118.051C120.957 45.3496 122.165 49.0684 119.814 50.7766L96.4249 67.7697C95.3735 68.5337 94.9335 69.8878 95.3351 71.1238L104.269 98.6193C105.167 101.383 102.004 103.682 99.6524 101.973L76.2634 84.9803C75.2119 84.2163 73.7881 84.2163 72.7366 84.9803L49.3476 101.973C46.9965 103.682 43.833 101.383 44.7311 98.6193L53.6649 71.1238C54.0665 69.8878 53.6265 68.5337 52.5751 67.7697L29.1861 50.7766C26.8349 49.0684 28.0432 45.3496 30.9494 45.3496H59.8598C61.1595 45.3496 62.3114 44.5127 62.713 43.2766L71.6468 15.7812Z" fill="#898989"/>
<path d="M11.603 135V121.6L12.243 122.28H8.30305V121H13.043V135H11.603ZM16.1496 131.32V130.28L23.5696 121H25.1696L17.8096 130.28L17.0296 130.04H28.2896V131.32H16.1496ZM24.0496 135V131.32L24.0896 130.04V126.8H25.4896V135H24.0496ZM36.0866 135V121H41.7866C43.28 121 44.5866 121.3 45.7066 121.9C46.84 122.487 47.72 123.307 48.3466 124.36C48.9733 125.413 49.2866 126.627 49.2866 128C49.2866 129.373 48.9733 130.587 48.3466 131.64C47.72 132.693 46.84 133.52 45.7066 134.12C44.5866 134.707 43.28 135 41.7866 135H36.0866ZM37.5666 133.72H41.7066C42.9466 133.72 44.02 133.48 44.9266 133C45.8466 132.507 46.56 131.833 47.0666 130.98C47.5733 130.113 47.8266 129.12 47.8266 128C47.8266 126.867 47.5733 125.873 47.0666 125.02C46.56 124.167 45.8466 123.5 44.9266 123.02C44.02 122.527 42.9466 122.28 41.7066 122.28H37.5666V133.72ZM58.8901 135V132.68L58.8301 132.3V128.42C58.8301 127.527 58.5767 126.84 58.0701 126.36C57.5767 125.88 56.8367 125.64 55.8501 125.64C55.1701 125.64 54.5234 125.753 53.9101 125.98C53.2967 126.207 52.7767 126.507 52.3501 126.88L51.7101 125.82C52.2434 125.367 52.8834 125.02 53.6301 124.78C54.3767 124.527 55.1634 124.4 55.9901 124.4C57.3501 124.4 58.3967 124.74 59.1301 125.42C59.8767 126.087 60.2501 127.107 60.2501 128.48V135H58.8901ZM55.2701 135.1C54.4834 135.1 53.7967 134.973 53.2101 134.72C52.6367 134.453 52.1967 134.093 51.8901 133.64C51.5834 133.173 51.4301 132.64 51.4301 132.04C51.4301 131.493 51.5567 131 51.8101 130.56C52.0767 130.107 52.5034 129.747 53.0901 129.48C53.6901 129.2 54.4901 129.06 55.4901 129.06H59.1101V130.12H55.5301C54.5167 130.12 53.8101 130.3 53.4101 130.66C53.0234 131.02 52.8301 131.467 52.8301 132C52.8301 132.6 53.0634 133.08 53.5301 133.44C53.9967 133.8 54.6501 133.98 55.4901 133.98C56.2901 133.98 56.9767 133.8 57.5501 133.44C58.1367 133.067 58.5634 132.533 58.8301 131.84L59.1501 132.82C58.8834 133.513 58.4167 134.067 57.7501 134.48C57.0967 134.893 56.2701 135.1 55.2701 135.1ZM63.9916 138.98C63.4983 138.98 63.025 138.9 62.5716 138.74C62.1316 138.58 61.7516 138.34 61.4316 138.02L62.0916 136.96C62.3583 137.213 62.645 137.407 62.9516 137.54C63.2716 137.687 63.625 137.76 64.0116 137.76C64.4783 137.76 64.8783 137.627 65.2116 137.36C65.5583 137.107 65.885 136.653 66.1916 136L66.8716 134.46L67.0316 134.24L71.3516 124.5H72.7516L67.4916 136.26C67.1983 136.94 66.8716 137.48 66.5116 137.88C66.165 138.28 65.785 138.56 65.3716 138.72C64.9583 138.893 64.4983 138.98 63.9916 138.98ZM66.7916 135.3L61.9516 124.5H63.4316L67.7116 134.14L66.7916 135.3ZM77.4543 135.1C76.5876 135.1 75.7676 134.98 74.9943 134.74C74.221 134.487 73.6143 134.173 73.1743 133.8L73.8143 132.68C74.241 133 74.7876 133.28 75.4543 133.52C76.121 133.747 76.821 133.86 77.5543 133.86C78.5543 133.86 79.2743 133.707 79.7143 133.4C80.1543 133.08 80.3743 132.66 80.3743 132.14C80.3743 131.753 80.2476 131.453 79.9943 131.24C79.7543 131.013 79.4343 130.847 79.0343 130.74C78.6343 130.62 78.1876 130.52 77.6943 130.44C77.201 130.36 76.7076 130.267 76.2143 130.16C75.7343 130.053 75.2943 129.9 74.8943 129.7C74.4943 129.487 74.1676 129.2 73.9143 128.84C73.6743 128.48 73.5543 128 73.5543 127.4C73.5543 126.827 73.7143 126.313 74.0343 125.86C74.3543 125.407 74.821 125.053 75.4343 124.8C76.061 124.533 76.821 124.4 77.7143 124.4C78.3943 124.4 79.0743 124.493 79.7543 124.68C80.4343 124.853 80.9943 125.087 81.4343 125.38L80.8143 126.52C80.3476 126.2 79.8476 125.973 79.3143 125.84C78.781 125.693 78.2476 125.62 77.7143 125.62C76.7676 125.62 76.0676 125.787 75.6143 126.12C75.1743 126.44 74.9543 126.853 74.9543 127.36C74.9543 127.76 75.0743 128.073 75.3143 128.3C75.5676 128.527 75.8943 128.707 76.2943 128.84C76.7076 128.96 77.1543 129.06 77.6343 129.14C78.1276 129.22 78.6143 129.32 79.0943 129.44C79.5876 129.547 80.0343 129.7 80.4343 129.9C80.8476 130.087 81.1743 130.36 81.4143 130.72C81.6676 131.067 81.7943 131.527 81.7943 132.1C81.7943 132.713 81.621 133.247 81.2743 133.7C80.941 134.14 80.4476 134.487 79.7943 134.74C79.1543 134.98 78.3743 135.1 77.4543 135.1ZM92.6543 135V122.28H87.7343V121H99.0543V122.28H94.1343V135H92.6543ZM100.845 135V124.5H102.205V127.36L102.065 126.86C102.359 126.06 102.852 125.453 103.545 125.04C104.239 124.613 105.099 124.4 106.125 124.4V125.78C106.072 125.78 106.019 125.78 105.965 125.78C105.912 125.767 105.859 125.76 105.805 125.76C104.699 125.76 103.832 126.1 103.205 126.78C102.579 127.447 102.265 128.4 102.265 129.64V135H100.845ZM114.515 135V132.68L114.455 132.3V128.42C114.455 127.527 114.202 126.84 113.695 126.36C113.202 125.88 112.462 125.64 111.475 125.64C110.795 125.64 110.148 125.753 109.535 125.98C108.922 126.207 108.402 126.507 107.975 126.88L107.335 125.82C107.868 125.367 108.508 125.02 109.255 124.78C110.002 124.527 110.788 124.4 111.615 124.4C112.975 124.4 114.022 124.74 114.755 125.42C115.502 126.087 115.875 127.107 115.875 128.48V135H114.515ZM110.895 135.1C110.108 135.1 109.422 134.973 108.835 134.72C108.262 134.453 107.822 134.093 107.515 133.64C107.208 133.173 107.055 132.64 107.055 132.04C107.055 131.493 107.182 131 107.435 130.56C107.702 130.107 108.128 129.747 108.715 129.48C109.315 129.2 110.115 129.06 111.115 129.06H114.735V130.12H111.155C110.142 130.12 109.435 130.3 109.035 130.66C108.648 131.02 108.455 131.467 108.455 132C108.455 132.6 108.688 133.08 109.155 133.44C109.622 133.8 110.275 133.98 111.115 133.98C111.915 133.98 112.602 133.8 113.175 133.44C113.762 133.067 114.188 132.533 114.455 131.84L114.775 132.82C114.508 133.513 114.042 134.067 113.375 134.48C112.722 134.893 111.895 135.1 110.895 135.1ZM124.092 135.1C123.052 135.1 122.119 134.873 121.292 134.42C120.479 133.953 119.839 133.32 119.372 132.52C118.905 131.707 118.672 130.78 118.672 129.74C118.672 128.687 118.905 127.76 119.372 126.96C119.839 126.16 120.479 125.533 121.292 125.08C122.119 124.627 123.052 124.4 124.092 124.4C124.985 124.4 125.792 124.573 126.512 124.92C127.232 125.267 127.799 125.787 128.212 126.48L127.152 127.2C126.792 126.667 126.345 126.273 125.812 126.02C125.279 125.767 124.699 125.64 124.072 125.64C123.325 125.64 122.652 125.813 122.052 126.16C121.452 126.493 120.979 126.967 120.632 127.58C120.285 128.193 120.112 128.913 120.112 129.74C120.112 130.567 120.285 131.287 120.632 131.9C120.979 132.513 121.452 132.993 122.052 133.34C122.652 133.673 123.325 133.84 124.072 133.84C124.699 133.84 125.279 133.713 125.812 133.46C126.345 133.207 126.792 132.82 127.152 132.3L128.212 133.02C127.799 133.7 127.232 134.22 126.512 134.58C125.792 134.927 124.985 135.1 124.092 135.1ZM131.965 132.28L132.005 130.46L138.545 124.5H140.285L135.665 128.92L134.865 129.6L131.965 132.28ZM130.845 135V120.16H132.265V135H130.845ZM138.985 135L134.605 129.54L135.525 128.44L140.725 135H138.985Z" fill="#AEAEAE"/>
<path d="M62.3597 76V51.88L63.5117 53.104H56.4197V50.8H64.9517V76H62.3597ZM70.5435 69.376V67.504L83.8995 50.8H86.7795L73.5315 67.504L72.1275 67.072H92.3955V69.376H70.5435ZM84.7635 76V69.376L84.8355 67.072V61.24H87.3555V76H84.7635Z" fill="white"/>
</svg>
