<svg width="151" height="150" viewBox="0 0 151 150" fill="none" xmlns="http://www.w3.org/2000/svg">
<path d="M0 10C0 4.47715 4.47715 0 10 0H140C145.523 0 150 4.47715 150 10V140C150 145.523 145.523 150 140 150H10C4.47715 150 0 145.523 0 140V10Z" fill="#E6E6E6"/>
<path d="M92.6468 8.78115C93.5449 6.01722 97.4551 6.01722 98.3532 8.78115L107.287 36.2766C107.689 37.5127 108.84 38.3496 110.14 38.3496H139.051C141.957 38.3496 143.165 42.0684 140.814 43.7766L117.425 60.7697C116.373 61.5337 115.933 62.8878 116.335 64.1238L125.269 91.6193C126.167 94.3832 123.004 96.6816 120.652 94.9734L97.2634 77.9803C96.2119 77.2163 94.7881 77.2163 93.7366 77.9803L70.3476 94.9734C67.9965 96.6816 64.833 94.3832 65.7311 91.6193L74.6649 64.1238C75.0665 62.8878 74.6265 61.5337 73.5751 60.7697L50.1861 43.7766C47.8349 42.0684 49.0432 38.3496 51.9494 38.3496H80.8598C82.1595 38.3496 83.3114 37.5127 83.713 36.2766L92.6468 8.78115Z" fill="#AEAEAE"/>
<path d="M53.6468 8.78115C54.5449 6.01722 58.4551 6.01722 59.3532 8.78115L68.287 36.2766C68.6886 37.5127 69.8405 38.3496 71.1402 38.3496H100.051C102.957 38.3496 104.165 42.0684 101.814 43.7766L78.4249 60.7697C77.3735 61.5337 76.9335 62.8878 77.3351 64.1238L86.2689 91.6193C87.167 94.3832 84.0035 96.6816 81.6524 94.9734L58.2634 77.9803C57.2119 77.2163 55.7881 77.2163 54.7366 77.9803L31.3476 94.9734C28.9965 96.6816 25.833 94.3832 26.7311 91.6193L35.6649 64.1238C36.0665 62.8878 35.6265 61.5337 34.5751 60.7697L11.1861 43.7766C8.83491 42.0684 10.0432 38.3496 12.9494 38.3496H41.8598C43.1595 38.3496 44.3114 37.5127 44.713 36.2766L53.6468 8.78115Z" fill="#AEAEAE"/>
<path d="M72.6468 15.7812C73.5449 13.0172 77.4551 13.0172 78.3532 15.7812L87.287 43.2766C87.6886 44.5127 88.8405 45.3496 90.1402 45.3496H119.051C121.957 45.3496 123.165 49.0684 120.814 50.7766L97.4249 67.7697C96.3735 68.5337 95.9335 69.8878 96.3351 71.1238L105.269 98.6193C106.167 101.383 103.004 103.682 100.652 101.973L77.2634 84.9803C76.2119 84.2163 74.7881 84.2163 73.7366 84.9803L50.3476 101.973C47.9965 103.682 44.833 101.383 45.7311 98.6193L54.6649 71.1238C55.0665 69.8878 54.6265 68.5337 53.5751 67.7697L30.1861 50.7766C27.8349 49.0684 29.0432 45.3496 31.9494 45.3496H60.8598C62.1595 45.3496 63.3114 44.5127 63.713 43.2766L72.6468 15.7812Z" fill="#898989"/>
<path d="M26.8687 135V121.6L27.5087 122.28H23.5687V121H28.3087V135H26.8687ZM31.4152 131.32V130.28L38.8352 121H40.4352L33.0752 130.28L32.2952 130.04H43.5552V131.32H31.4152ZM39.3152 135V131.32L39.3552 130.04V126.8H40.7552V135H39.3152ZM44.0412 135L49.7812 127.24V128.38L44.3812 121H46.0812L50.6212 127.16L49.9612 127.18L54.5012 121H56.1012L50.7612 128.28V127.24L56.4812 135H54.7612L49.9212 128.42H50.5412L45.7412 135H44.0412ZM62.2862 135.12C61.2862 135.12 60.3328 134.96 59.4262 134.64C58.5195 134.307 57.7995 133.867 57.2662 133.32L57.9662 132.18C58.4062 132.647 59.0062 133.033 59.7662 133.34C60.5395 133.647 61.3728 133.8 62.2662 133.8C63.4528 133.8 64.3528 133.54 64.9662 133.02C65.5928 132.487 65.9062 131.793 65.9062 130.94C65.9062 130.34 65.7595 129.827 65.4662 129.4C65.1862 128.96 64.7062 128.62 64.0262 128.38C63.3462 128.14 62.4128 128.02 61.2262 128.02H58.2462L58.9662 121H66.6262V122.28H59.5462L60.2862 121.58L59.6662 127.46L58.9262 126.74H61.5462C62.9595 126.74 64.0928 126.913 64.9462 127.26C65.7995 127.607 66.4128 128.093 66.7862 128.72C67.1728 129.333 67.3662 130.053 67.3662 130.88C67.3662 131.667 67.1795 132.387 66.8062 133.04C66.4328 133.68 65.8728 134.187 65.1262 134.56C64.3795 134.933 63.4328 135.12 62.2862 135.12ZM78.3887 135V122.28H73.4687V121H84.7887V122.28H79.8687V135H78.3887ZM86.5796 135V124.5H87.9396V127.36L87.7996 126.86C88.0929 126.06 88.5863 125.453 89.2796 125.04C89.9729 124.613 90.8329 124.4 91.8596 124.4V125.78C91.8063 125.78 91.7529 125.78 91.6996 125.78C91.6463 125.767 91.5929 125.76 91.5396 125.76C90.4329 125.76 89.5663 126.1 88.9396 126.78C88.3129 127.447 87.9996 128.4 87.9996 129.64V135H86.5796ZM100.249 135V132.68L100.189 132.3V128.42C100.189 127.527 99.9361 126.84 99.4295 126.36C98.9361 125.88 98.1961 125.64 97.2095 125.64C96.5295 125.64 95.8828 125.753 95.2695 125.98C94.6561 126.207 94.1361 126.507 93.7095 126.88L93.0695 125.82C93.6028 125.367 94.2428 125.02 94.9895 124.78C95.7361 124.527 96.5228 124.4 97.3495 124.4C98.7095 124.4 99.7561 124.74 100.489 125.42C101.236 126.087 101.609 127.107 101.609 128.48V135H100.249ZM96.6295 135.1C95.8428 135.1 95.1561 134.973 94.5695 134.72C93.9961 134.453 93.5561 134.093 93.2495 133.64C92.9428 133.173 92.7895 132.64 92.7895 132.04C92.7895 131.493 92.9161 131 93.1695 130.56C93.4361 130.107 93.8628 129.747 94.4495 129.48C95.0495 129.2 95.8495 129.06 96.8495 129.06H100.469V130.12H96.8895C95.8761 130.12 95.1695 130.3 94.7695 130.66C94.3828 131.02 94.1895 131.467 94.1895 132C94.1895 132.6 94.4228 133.08 94.8895 133.44C95.3561 133.8 96.0095 133.98 96.8495 133.98C97.6495 133.98 98.3361 133.8 98.9095 133.44C99.4961 133.067 99.9228 132.533 100.189 131.84L100.509 132.82C100.243 133.513 99.7761 134.067 99.1095 134.48C98.4561 134.893 97.6295 135.1 96.6295 135.1ZM109.826 135.1C108.786 135.1 107.853 134.873 107.026 134.42C106.213 133.953 105.573 133.32 105.106 132.52C104.64 131.707 104.406 130.78 104.406 129.74C104.406 128.687 104.64 127.76 105.106 126.96C105.573 126.16 106.213 125.533 107.026 125.08C107.853 124.627 108.786 124.4 109.826 124.4C110.72 124.4 111.526 124.573 112.246 124.92C112.966 125.267 113.533 125.787 113.946 126.48L112.886 127.2C112.526 126.667 112.08 126.273 111.546 126.02C111.013 125.767 110.433 125.64 109.806 125.64C109.06 125.64 108.386 125.813 107.786 126.16C107.186 126.493 106.713 126.967 106.366 127.58C106.02 128.193 105.846 128.913 105.846 129.74C105.846 130.567 106.02 131.287 106.366 131.9C106.713 132.513 107.186 132.993 107.786 133.34C108.386 133.673 109.06 133.84 109.806 133.84C110.433 133.84 111.013 133.713 111.546 133.46C112.08 133.207 112.526 132.82 112.886 132.3L113.946 133.02C113.533 133.7 112.966 134.22 112.246 134.58C111.526 134.927 110.72 135.1 109.826 135.1ZM117.7 132.28L117.74 130.46L124.28 124.5H126.02L121.4 128.92L120.6 129.6L117.7 132.28ZM116.58 135V120.16H118V135H116.58ZM124.72 135L120.34 129.54L121.26 128.44L126.46 135H124.72Z" fill="#AEAEAE"/>
<path d="M63.3597 76V51.88L64.5117 53.104H57.4197V50.8H65.9517V76H63.3597ZM71.5435 69.376V67.504L84.8995 50.8H87.7795L74.5315 67.504L73.1275 67.072H93.3955V69.376H71.5435ZM85.7635 76V69.376L85.8355 67.072V61.24H88.3555V76H85.7635Z" fill="white"/>
</svg>
