<svg width="150" height="150" viewBox="0 0 150 150" fill="none" xmlns="http://www.w3.org/2000/svg">
<path d="M0 10C0 4.47715 4.47715 0 10 0H140C145.523 0 150 4.47715 150 10V140C150 145.523 145.523 150 140 150H10C4.47715 150 0 145.523 0 140V10Z" fill="#FFF5D9"/>
<path d="M91.6468 8.78115C92.5449 6.01722 96.4551 6.01722 97.3532 8.78115L106.287 36.2766C106.689 37.5127 107.84 38.3496 109.14 38.3496H138.051C140.957 38.3496 142.165 42.0684 139.814 43.7766L116.425 60.7697C115.373 61.5337 114.933 62.8878 115.335 64.1238L124.269 91.6193C125.167 94.3832 122.004 96.6816 119.652 94.9734L96.2634 77.9803C95.2119 77.2163 93.7881 77.2163 92.7366 77.9803L69.3476 94.9734C66.9965 96.6816 63.833 94.3832 64.7311 91.6193L73.6649 64.1238C74.0665 62.8878 73.6265 61.5337 72.5751 60.7697L49.1861 43.7766C46.8349 42.0684 48.0432 38.3496 50.9494 38.3496H79.8598C81.1595 38.3496 82.3114 37.5127 82.713 36.2766L91.6468 8.78115Z" fill="#B2FF59"/>
<path d="M52.6468 8.78115C53.5449 6.01722 57.4551 6.01722 58.3532 8.78115L67.287 36.2766C67.6886 37.5127 68.8405 38.3496 70.1402 38.3496H99.0506C101.957 38.3496 103.165 42.0684 100.814 43.7766L77.4249 60.7697C76.3735 61.5337 75.9335 62.8878 76.3351 64.1238L85.2689 91.6193C86.167 94.3832 83.0035 96.6816 80.6524 94.9734L57.2634 77.9803C56.2119 77.2163 54.7881 77.2163 53.7366 77.9803L30.3476 94.9734C27.9965 96.6816 24.833 94.3832 25.7311 91.6193L34.6649 64.1238C35.0665 62.8878 34.6265 61.5337 33.5751 60.7697L10.1861 43.7766C7.83491 42.0684 9.04324 38.3496 11.9494 38.3496H40.8598C42.1595 38.3496 43.3114 37.5127 43.713 36.2766L52.6468 8.78115Z" fill="#B2FF59"/>
<path d="M71.6468 15.7812C72.5449 13.0172 76.4551 13.0172 77.3532 15.7812L86.287 43.2766C86.6886 44.5127 87.8405 45.3496 89.1402 45.3496H118.051C120.957 45.3496 122.165 49.0684 119.814 50.7766L96.4249 67.7697C95.3735 68.5337 94.9335 69.8878 95.3351 71.1238L104.269 98.6193C105.167 101.383 102.004 103.682 99.6524 101.973L76.2634 84.9803C75.2119 84.2163 73.7881 84.2163 72.7366 84.9803L49.3476 101.973C46.9965 103.682 43.833 101.383 44.7311 98.6193L53.6649 71.1238C54.0665 69.8878 53.6265 68.5337 52.5751 67.7697L29.1861 50.7766C26.8349 49.0684 28.0432 45.3496 30.9494 45.3496H59.8598C61.1595 45.3496 62.3114 44.5127 62.713 43.2766L71.6468 15.7812Z" fill="#87D134"/>
<path d="M25.8687 135V121.6L26.5087 122.28H22.5687V121H27.3087V135H25.8687ZM30.4152 131.32V130.28L37.8352 121H39.4352L32.0752 130.28L31.2952 130.04H42.5552V131.32H30.4152ZM38.3152 135V131.32L38.3552 130.04V126.8H39.7552V135H38.3152ZM43.0412 135L48.7812 127.24V128.38L43.3812 121H45.0812L49.6212 127.16L48.9612 127.18L53.5012 121H55.1012L49.7612 128.28V127.24L55.4812 135H53.7612L48.9212 128.42H49.5412L44.7412 135H43.0412ZM61.2862 135.12C60.2862 135.12 59.3328 134.96 58.4262 134.64C57.5195 134.307 56.7995 133.867 56.2662 133.32L56.9662 132.18C57.4062 132.647 58.0062 133.033 58.7662 133.34C59.5395 133.647 60.3728 133.8 61.2662 133.8C62.4528 133.8 63.3528 133.54 63.9662 133.02C64.5928 132.487 64.9062 131.793 64.9062 130.94C64.9062 130.34 64.7595 129.827 64.4662 129.4C64.1862 128.96 63.7062 128.62 63.0262 128.38C62.3462 128.14 61.4128 128.02 60.2262 128.02H57.2462L57.9662 121H65.6262V122.28H58.5462L59.2862 121.58L58.6662 127.46L57.9262 126.74H60.5462C61.9595 126.74 63.0928 126.913 63.9462 127.26C64.7995 127.607 65.4128 128.093 65.7862 128.72C66.1728 129.333 66.3662 130.053 66.3662 130.88C66.3662 131.667 66.1795 132.387 65.8062 133.04C65.4328 133.68 64.8728 134.187 64.1262 134.56C63.3795 134.933 62.4328 135.12 61.2862 135.12ZM77.3887 135V122.28H72.4687V121H83.7887V122.28H78.8687V135H77.3887ZM85.5796 135V124.5H86.9396V127.36L86.7996 126.86C87.0929 126.06 87.5863 125.453 88.2796 125.04C88.9729 124.613 89.8329 124.4 90.8596 124.4V125.78C90.8063 125.78 90.7529 125.78 90.6996 125.78C90.6463 125.767 90.5929 125.76 90.5396 125.76C89.4329 125.76 88.5663 126.1 87.9396 126.78C87.3129 127.447 86.9996 128.4 86.9996 129.64V135H85.5796ZM99.2495 135V132.68L99.1895 132.3V128.42C99.1895 127.527 98.9361 126.84 98.4295 126.36C97.9361 125.88 97.1961 125.64 96.2095 125.64C95.5295 125.64 94.8828 125.753 94.2695 125.98C93.6561 126.207 93.1361 126.507 92.7095 126.88L92.0695 125.82C92.6028 125.367 93.2428 125.02 93.9895 124.78C94.7361 124.527 95.5228 124.4 96.3495 124.4C97.7095 124.4 98.7561 124.74 99.4895 125.42C100.236 126.087 100.609 127.107 100.609 128.48V135H99.2495ZM95.6295 135.1C94.8428 135.1 94.1561 134.973 93.5695 134.72C92.9961 134.453 92.5561 134.093 92.2495 133.64C91.9428 133.173 91.7895 132.64 91.7895 132.04C91.7895 131.493 91.9161 131 92.1695 130.56C92.4361 130.107 92.8628 129.747 93.4495 129.48C94.0495 129.2 94.8495 129.06 95.8495 129.06H99.4695V130.12H95.8895C94.8761 130.12 94.1695 130.3 93.7695 130.66C93.3828 131.02 93.1895 131.467 93.1895 132C93.1895 132.6 93.4228 133.08 93.8895 133.44C94.3561 133.8 95.0095 133.98 95.8495 133.98C96.6495 133.98 97.3361 133.8 97.9095 133.44C98.4961 133.067 98.9228 132.533 99.1895 131.84L99.5095 132.82C99.2428 133.513 98.7761 134.067 98.1095 134.48C97.4561 134.893 96.6295 135.1 95.6295 135.1ZM108.826 135.1C107.786 135.1 106.853 134.873 106.026 134.42C105.213 133.953 104.573 133.32 104.106 132.52C103.64 131.707 103.406 130.78 103.406 129.74C103.406 128.687 103.64 127.76 104.106 126.96C104.573 126.16 105.213 125.533 106.026 125.08C106.853 124.627 107.786 124.4 108.826 124.4C109.72 124.4 110.526 124.573 111.246 124.92C111.966 125.267 112.533 125.787 112.946 126.48L111.886 127.2C111.526 126.667 111.08 126.273 110.546 126.02C110.013 125.767 109.433 125.64 108.806 125.64C108.06 125.64 107.386 125.813 106.786 126.16C106.186 126.493 105.713 126.967 105.366 127.58C105.02 128.193 104.846 128.913 104.846 129.74C104.846 130.567 105.02 131.287 105.366 131.9C105.713 132.513 106.186 132.993 106.786 133.34C107.386 133.673 108.06 133.84 108.806 133.84C109.433 133.84 110.013 133.713 110.546 133.46C111.08 133.207 111.526 132.82 111.886 132.3L112.946 133.02C112.533 133.7 111.966 134.22 111.246 134.58C110.526 134.927 109.72 135.1 108.826 135.1ZM116.7 132.28L116.74 130.46L123.28 124.5H125.02L120.4 128.92L119.6 129.6L116.7 132.28ZM115.58 135V120.16H117V135H115.58ZM123.72 135L119.34 129.54L120.26 128.44L125.46 135H123.72Z" fill="#D1A21F"/>
<path d="M62.3597 76V51.88L63.5117 53.104H56.4197V50.8H64.9517V76H62.3597ZM70.5435 69.376V67.504L83.8995 50.8H86.7795L73.5315 67.504L72.1275 67.072H92.3955V69.376H70.5435ZM84.7635 76V69.376L84.8355 67.072V61.24H87.3555V76H84.7635Z" fill="white"/>
</svg>
