<svg width="150" height="150" viewBox="0 0 150 150" fill="none" xmlns="http://www.w3.org/2000/svg">
<path d="M0 10C0 4.47715 4.47715 0 10 0H140C145.523 0 150 4.47715 150 10V140C150 145.523 145.523 150 140 150H10C4.47715 150 0 145.523 0 140V10Z" fill="#FFE1D9"/>
<path d="M73.6468 10.7811C74.5449 8.01721 78.4551 8.01722 79.3532 10.7812L88.736 39.6586C89.1376 40.8946 90.2895 41.7315 91.5892 41.7315H121.953C124.859 41.7315 126.067 45.4504 123.716 47.1586L99.1515 65.0058C98.1 65.7697 97.66 67.1238 98.0616 68.3599L107.444 97.2373C108.343 100.001 105.179 102.3 102.828 100.591L78.2634 82.7442C77.2119 81.9803 75.7881 81.9803 74.7366 82.7442L50.172 100.591C47.8209 102.3 44.6575 100.001 45.5555 97.2373L54.9384 68.3599C55.34 67.1238 54.9 65.7697 53.8485 65.0058L29.2839 47.1586C26.9328 45.4504 28.1411 41.7315 31.0473 41.7315H61.4108C62.7105 41.7315 63.8624 40.8946 64.264 39.6586L73.6468 10.7811Z" fill="#73DCFF"/>
<path d="M71.6468 15.7812C72.5449 13.0172 76.4551 13.0172 77.3532 15.7812L86.287 43.2766C86.6886 44.5127 87.8405 45.3496 89.1402 45.3496H118.051C120.957 45.3496 122.165 49.0684 119.814 50.7766L96.4249 67.7697C95.3735 68.5337 94.9335 69.8878 95.3351 71.1238L104.269 98.6193C105.167 101.383 102.004 103.682 99.6524 101.973L76.2634 84.9803C75.2119 84.2163 73.7881 84.2163 72.7366 84.9803L49.3476 101.973C46.9965 103.682 43.833 101.383 44.7311 98.6193L53.6649 71.1238C54.0665 69.8878 53.6265 68.5337 52.5751 67.7697L29.1861 50.7766C26.8349 49.0684 28.0432 45.3496 30.9494 45.3496H59.8598C61.1595 45.3496 62.3114 44.5127 62.713 43.2766L71.6468 15.7812Z" fill="#49B0D1"/>
<path d="M9.83078 135V133.98L15.6508 128.28C16.1841 127.76 16.5841 127.307 16.8508 126.92C17.1174 126.52 17.2974 126.147 17.3908 125.8C17.4841 125.453 17.5308 125.127 17.5308 124.82C17.5308 124.007 17.2508 123.367 16.6908 122.9C16.1441 122.433 15.3308 122.2 14.2508 122.2C13.4241 122.2 12.6908 122.327 12.0508 122.58C11.4241 122.833 10.8841 123.227 10.4308 123.76L9.41078 122.88C9.95745 122.24 10.6574 121.747 11.5108 121.4C12.3641 121.053 13.3174 120.88 14.3708 120.88C15.3174 120.88 16.1374 121.033 16.8308 121.34C17.5241 121.633 18.0574 122.067 18.4308 122.64C18.8174 123.213 19.0108 123.887 19.0108 124.66C19.0108 125.113 18.9441 125.56 18.8108 126C18.6908 126.44 18.4641 126.907 18.1308 127.4C17.8108 127.88 17.3374 128.427 16.7108 129.04L11.3708 134.28L10.9708 133.72H19.6508V135H9.83078ZM23.898 135V121.6L24.538 122.28H20.598V121H25.338V135H23.898ZM35.1589 135V121H40.8589C42.3522 121 43.6589 121.3 44.7789 121.9C45.9122 122.487 46.7922 123.307 47.4189 124.36C48.0456 125.413 48.3589 126.627 48.3589 128C48.3589 129.373 48.0456 130.587 47.4189 131.64C46.7922 132.693 45.9122 133.52 44.7789 134.12C43.6589 134.707 42.3522 135 40.8589 135H35.1589ZM36.6389 133.72H40.7789C42.0189 133.72 43.0922 133.48 43.9989 133C44.9189 132.507 45.6322 131.833 46.1389 130.98C46.6456 130.113 46.8989 129.12 46.8989 128C46.8989 126.867 46.6456 125.873 46.1389 125.02C45.6322 124.167 44.9189 123.5 43.9989 123.02C43.0922 122.527 42.0189 122.28 40.7789 122.28H36.6389V133.72ZM57.9623 135V132.68L57.9023 132.3V128.42C57.9023 127.527 57.649 126.84 57.1423 126.36C56.649 125.88 55.909 125.64 54.9223 125.64C54.2423 125.64 53.5957 125.753 52.9823 125.98C52.369 126.207 51.849 126.507 51.4223 126.88L50.7823 125.82C51.3157 125.367 51.9557 125.02 52.7023 124.78C53.449 124.527 54.2357 124.4 55.0623 124.4C56.4223 124.4 57.469 124.74 58.2023 125.42C58.949 126.087 59.3223 127.107 59.3223 128.48V135H57.9623ZM54.3423 135.1C53.5557 135.1 52.869 134.973 52.2823 134.72C51.709 134.453 51.269 134.093 50.9623 133.64C50.6557 133.173 50.5023 132.64 50.5023 132.04C50.5023 131.493 50.629 131 50.8823 130.56C51.149 130.107 51.5757 129.747 52.1623 129.48C52.7623 129.2 53.5623 129.06 54.5623 129.06H58.1823V130.12H54.6023C53.589 130.12 52.8823 130.3 52.4823 130.66C52.0957 131.02 51.9023 131.467 51.9023 132C51.9023 132.6 52.1357 133.08 52.6023 133.44C53.069 133.8 53.7223 133.98 54.5623 133.98C55.3623 133.98 56.049 133.8 56.6223 133.44C57.209 133.067 57.6357 132.533 57.9023 131.84L58.2223 132.82C57.9557 133.513 57.489 134.067 56.8223 134.48C56.169 134.893 55.3423 135.1 54.3423 135.1ZM63.0639 138.98C62.5706 138.98 62.0972 138.9 61.6439 138.74C61.2039 138.58 60.8239 138.34 60.5039 138.02L61.1639 136.96C61.4306 137.213 61.7172 137.407 62.0239 137.54C62.3439 137.687 62.6972 137.76 63.0839 137.76C63.5506 137.76 63.9506 137.627 64.2839 137.36C64.6306 137.107 64.9572 136.653 65.2639 136L65.9439 134.46L66.1039 134.24L70.4239 124.5H71.8239L66.5639 136.26C66.2706 136.94 65.9439 137.48 65.5839 137.88C65.2372 138.28 64.8572 138.56 64.4439 138.72C64.0306 138.893 63.5706 138.98 63.0639 138.98ZM65.8639 135.3L61.0239 124.5H62.5039L66.7839 134.14L65.8639 135.3ZM76.5266 135.1C75.6599 135.1 74.8399 134.98 74.0666 134.74C73.2932 134.487 72.6866 134.173 72.2466 133.8L72.8866 132.68C73.3132 133 73.8599 133.28 74.5266 133.52C75.1932 133.747 75.8932 133.86 76.6266 133.86C77.6266 133.86 78.3466 133.707 78.7866 133.4C79.2266 133.08 79.4466 132.66 79.4466 132.14C79.4466 131.753 79.3199 131.453 79.0666 131.24C78.8266 131.013 78.5066 130.847 78.1066 130.74C77.7066 130.62 77.2599 130.52 76.7666 130.44C76.2732 130.36 75.7799 130.267 75.2866 130.16C74.8066 130.053 74.3666 129.9 73.9666 129.7C73.5666 129.487 73.2399 129.2 72.9866 128.84C72.7466 128.48 72.6266 128 72.6266 127.4C72.6266 126.827 72.7866 126.313 73.1066 125.86C73.4266 125.407 73.8932 125.053 74.5066 124.8C75.1332 124.533 75.8932 124.4 76.7866 124.4C77.4666 124.4 78.1466 124.493 78.8266 124.68C79.5066 124.853 80.0666 125.087 80.5066 125.38L79.8866 126.52C79.4199 126.2 78.9199 125.973 78.3866 125.84C77.8532 125.693 77.3199 125.62 76.7866 125.62C75.8399 125.62 75.1399 125.787 74.6866 126.12C74.2466 126.44 74.0266 126.853 74.0266 127.36C74.0266 127.76 74.1466 128.073 74.3866 128.3C74.6399 128.527 74.9666 128.707 75.3666 128.84C75.7799 128.96 76.2266 129.06 76.7066 129.14C77.1999 129.22 77.6866 129.32 78.1666 129.44C78.6599 129.547 79.1066 129.7 79.5066 129.9C79.9199 130.087 80.2466 130.36 80.4866 130.72C80.7399 131.067 80.8666 131.527 80.8666 132.1C80.8666 132.713 80.6932 133.247 80.3466 133.7C80.0132 134.14 79.5199 134.487 78.8666 134.74C78.2266 134.98 77.4466 135.1 76.5266 135.1ZM91.7266 135V122.28H86.8066V121H98.1266V122.28H93.2066V135H91.7266ZM99.9175 135V124.5H101.278V127.36L101.138 126.86C101.431 126.06 101.924 125.453 102.618 125.04C103.311 124.613 104.171 124.4 105.198 124.4V125.78C105.144 125.78 105.091 125.78 105.038 125.78C104.984 125.767 104.931 125.76 104.878 125.76C103.771 125.76 102.904 126.1 102.278 126.78C101.651 127.447 101.338 128.4 101.338 129.64V135H99.9175ZM113.587 135V132.68L113.527 132.3V128.42C113.527 127.527 113.274 126.84 112.767 126.36C112.274 125.88 111.534 125.64 110.547 125.64C109.867 125.64 109.221 125.753 108.607 125.98C107.994 126.207 107.474 126.507 107.047 126.88L106.407 125.82C106.941 125.367 107.581 125.02 108.327 124.78C109.074 124.527 109.861 124.4 110.687 124.4C112.047 124.4 113.094 124.74 113.827 125.42C114.574 126.087 114.947 127.107 114.947 128.48V135H113.587ZM109.967 135.1C109.181 135.1 108.494 134.973 107.907 134.72C107.334 134.453 106.894 134.093 106.587 133.64C106.281 133.173 106.127 132.64 106.127 132.04C106.127 131.493 106.254 131 106.507 130.56C106.774 130.107 107.201 129.747 107.787 129.48C108.387 129.2 109.187 129.06 110.187 129.06H113.807V130.12H110.227C109.214 130.12 108.507 130.3 108.107 130.66C107.721 131.02 107.527 131.467 107.527 132C107.527 132.6 107.761 133.08 108.227 133.44C108.694 133.8 109.347 133.98 110.187 133.98C110.987 133.98 111.674 133.8 112.247 133.44C112.834 133.067 113.261 132.533 113.527 131.84L113.847 132.82C113.581 133.513 113.114 134.067 112.447 134.48C111.794 134.893 110.967 135.1 109.967 135.1ZM123.164 135.1C122.124 135.1 121.191 134.873 120.364 134.42C119.551 133.953 118.911 133.32 118.444 132.52C117.978 131.707 117.744 130.78 117.744 129.74C117.744 128.687 117.978 127.76 118.444 126.96C118.911 126.16 119.551 125.533 120.364 125.08C121.191 124.627 122.124 124.4 123.164 124.4C124.058 124.4 124.864 124.573 125.584 124.92C126.304 125.267 126.871 125.787 127.284 126.48L126.224 127.2C125.864 126.667 125.418 126.273 124.884 126.02C124.351 125.767 123.771 125.64 123.144 125.64C122.398 125.64 121.724 125.813 121.124 126.16C120.524 126.493 120.051 126.967 119.704 127.58C119.358 128.193 119.184 128.913 119.184 129.74C119.184 130.567 119.358 131.287 119.704 131.9C120.051 132.513 120.524 132.993 121.124 133.34C121.724 133.673 122.398 133.84 123.144 133.84C123.771 133.84 124.351 133.713 124.884 133.46C125.418 133.207 125.864 132.82 126.224 132.3L127.284 133.02C126.871 133.7 126.304 134.22 125.584 134.58C124.864 134.927 124.058 135.1 123.164 135.1ZM131.038 132.28L131.078 130.46L137.618 124.5H139.358L134.738 128.92L133.938 129.6L131.038 132.28ZM129.918 135V120.16H131.338V135H129.918ZM138.058 135L133.678 129.54L134.598 128.44L139.798 135H138.058Z" fill="#D1461F"/>
<path d="M58.6696 76V74.164L69.1456 63.904C70.1056 62.968 70.8256 62.152 71.3056 61.456C71.7856 60.736 72.1096 60.064 72.2776 59.44C72.4456 58.816 72.5296 58.228 72.5296 57.676C72.5296 56.212 72.0256 55.06 71.0176 54.22C70.0336 53.38 68.5696 52.96 66.6256 52.96C65.1376 52.96 63.8176 53.188 62.6656 53.644C61.5376 54.1 60.5656 54.808 59.7496 55.768L57.9136 54.184C58.8976 53.032 60.1576 52.144 61.6936 51.52C63.2296 50.896 64.9456 50.584 66.8416 50.584C68.5456 50.584 70.0216 50.86 71.2696 51.412C72.5176 51.94 73.4776 52.72 74.1496 53.752C74.8456 54.784 75.1936 55.996 75.1936 57.388C75.1936 58.204 75.0736 59.008 74.8336 59.8C74.6176 60.592 74.2096 61.432 73.6096 62.32C73.0336 63.184 72.1816 64.168 71.0536 65.272L61.4416 74.704L60.7216 73.696H76.3456V76H58.6696ZM83.9906 76V51.88L85.1426 53.104H78.0506V50.8H86.5826V76H83.9906Z" fill="white"/>
</svg>
