<svg width="150" height="150" viewBox="0 0 150 150" fill="none" xmlns="http://www.w3.org/2000/svg">
<path d="M0 10C0 4.47715 4.47715 0 10 0H140C145.523 0 150 4.47715 150 10V140C150 145.523 145.523 150 140 150H10C4.47715 150 0 145.523 0 140V10Z" fill="#E6E6E6"/>
<path d="M91.6468 8.78115C92.5449 6.01722 96.4551 6.01722 97.3532 8.78115L106.287 36.2766C106.689 37.5127 107.84 38.3496 109.14 38.3496H138.051C140.957 38.3496 142.165 42.0684 139.814 43.7766L116.425 60.7697C115.373 61.5337 114.933 62.8878 115.335 64.1238L124.269 91.6193C125.167 94.3832 122.004 96.6816 119.652 94.9734L96.2634 77.9803C95.2119 77.2163 93.7881 77.2163 92.7366 77.9803L69.3476 94.9734C66.9965 96.6816 63.833 94.3832 64.7311 91.6193L73.6649 64.1238C74.0665 62.8878 73.6265 61.5337 72.5751 60.7697L49.1861 43.7766C46.8349 42.0684 48.0432 38.3496 50.9494 38.3496H79.8598C81.1595 38.3496 82.3114 37.5127 82.713 36.2766L91.6468 8.78115Z" fill="#AEAEAE"/>
<path d="M52.6468 8.78115C53.5449 6.01722 57.4551 6.01722 58.3532 8.78115L67.287 36.2766C67.6886 37.5127 68.8405 38.3496 70.1402 38.3496H99.0506C101.957 38.3496 103.165 42.0684 100.814 43.7766L77.4249 60.7697C76.3735 61.5337 75.9335 62.8878 76.3351 64.1238L85.2689 91.6193C86.167 94.3832 83.0035 96.6816 80.6524 94.9734L57.2634 77.9803C56.2119 77.2163 54.7881 77.2163 53.7366 77.9803L30.3476 94.9734C27.9965 96.6816 24.833 94.3832 25.7311 91.6193L34.6649 64.1238C35.0665 62.8878 34.6265 61.5337 33.5751 60.7697L10.1861 43.7766C7.83491 42.0684 9.04324 38.3496 11.9494 38.3496H40.8598C42.1595 38.3496 43.3114 37.5127 43.713 36.2766L52.6468 8.78115Z" fill="#AEAEAE"/>
<path d="M71.6468 15.7812C72.5449 13.0172 76.4551 13.0172 77.3532 15.7812L86.287 43.2766C86.6886 44.5127 87.8405 45.3496 89.1402 45.3496H118.051C120.957 45.3496 122.165 49.0684 119.814 50.7766L96.4249 67.7697C95.3735 68.5337 94.9335 69.8878 95.3351 71.1238L104.269 98.6193C105.167 101.383 102.004 103.682 99.6524 101.973L76.2634 84.9803C75.2119 84.2163 73.7881 84.2163 72.7366 84.9803L49.3476 101.973C46.9965 103.682 43.833 101.383 44.7311 98.6193L53.6649 71.1238C54.0665 69.8878 53.6265 68.5337 52.5751 67.7697L29.1861 50.7766C26.8349 49.0684 28.0432 45.3496 30.9494 45.3496H59.8598C61.1595 45.3496 62.3114 44.5127 62.713 43.2766L71.6468 15.7812Z" fill="#898989"/>
<path d="M24.028 135V133.98L29.848 128.28C30.3814 127.76 30.7814 127.307 31.048 126.92C31.3147 126.52 31.4947 126.147 31.588 125.8C31.6814 125.453 31.728 125.127 31.728 124.82C31.728 124.007 31.448 123.367 30.888 122.9C30.3414 122.433 29.528 122.2 28.448 122.2C27.6214 122.2 26.888 122.327 26.248 122.58C25.6214 122.833 25.0814 123.227 24.628 123.76L23.608 122.88C24.1547 122.24 24.8547 121.747 25.708 121.4C26.5614 121.053 27.5147 120.88 28.568 120.88C29.5147 120.88 30.3347 121.033 31.028 121.34C31.7214 121.633 32.2547 122.067 32.628 122.64C33.0147 123.213 33.208 123.887 33.208 124.66C33.208 125.113 33.1414 125.56 33.008 126C32.888 126.44 32.6614 126.907 32.328 127.4C32.008 127.88 31.5347 128.427 30.908 129.04L25.568 134.28L25.168 133.72H33.848V135H24.028ZM38.0952 135V121.6L38.7352 122.28H34.7952V121H39.5352V135H38.0952ZM42.1818 135L47.9218 127.24V128.38L42.5218 121H44.2218L48.7618 127.16L48.1018 127.18L52.6418 121H54.2418L48.9018 128.28V127.24L54.6218 135H52.9018L48.0618 128.42H48.6818L43.8818 135H42.1818ZM60.4268 135.12C59.4268 135.12 58.4735 134.96 57.5668 134.64C56.6601 134.307 55.9401 133.867 55.4068 133.32L56.1068 132.18C56.5468 132.647 57.1468 133.033 57.9068 133.34C58.6801 133.647 59.5135 133.8 60.4068 133.8C61.5935 133.8 62.4935 133.54 63.1068 133.02C63.7335 132.487 64.0468 131.793 64.0468 130.94C64.0468 130.34 63.9001 129.827 63.6068 129.4C63.3268 128.96 62.8468 128.62 62.1668 128.38C61.4868 128.14 60.5535 128.02 59.3668 128.02H56.3868L57.1068 121H64.7668V122.28H57.6868L58.4268 121.58L57.8068 127.46L57.0668 126.74H59.6868C61.1001 126.74 62.2335 126.913 63.0868 127.26C63.9401 127.607 64.5535 128.093 64.9268 128.72C65.3135 129.333 65.5068 130.053 65.5068 130.88C65.5068 131.667 65.3201 132.387 64.9468 133.04C64.5735 133.68 64.0135 134.187 63.2668 134.56C62.5201 134.933 61.5735 135.12 60.4268 135.12ZM76.5293 135V122.28H71.6093V121H82.9293V122.28H78.0093V135H76.5293ZM84.7202 135V124.5H86.0802V127.36L85.9402 126.86C86.2336 126.06 86.7269 125.453 87.4202 125.04C88.1136 124.613 88.9736 124.4 90.0002 124.4V125.78C89.9469 125.78 89.8936 125.78 89.8402 125.78C89.7869 125.767 89.7336 125.76 89.6802 125.76C88.5736 125.76 87.7069 126.1 87.0802 126.78C86.4536 127.447 86.1402 128.4 86.1402 129.64V135H84.7202ZM98.3901 135V132.68L98.3301 132.3V128.42C98.3301 127.527 98.0767 126.84 97.5701 126.36C97.0767 125.88 96.3367 125.64 95.3501 125.64C94.6701 125.64 94.0234 125.753 93.4101 125.98C92.7967 126.207 92.2767 126.507 91.8501 126.88L91.2101 125.82C91.7434 125.367 92.3834 125.02 93.1301 124.78C93.8767 124.527 94.6634 124.4 95.4901 124.4C96.8501 124.4 97.8967 124.74 98.6301 125.42C99.3767 126.087 99.7501 127.107 99.7501 128.48V135H98.3901ZM94.7701 135.1C93.9834 135.1 93.2967 134.973 92.7101 134.72C92.1367 134.453 91.6967 134.093 91.3901 133.64C91.0834 133.173 90.9301 132.64 90.9301 132.04C90.9301 131.493 91.0567 131 91.3101 130.56C91.5767 130.107 92.0034 129.747 92.5901 129.48C93.1901 129.2 93.9901 129.06 94.9901 129.06H98.6101V130.12H95.0301C94.0167 130.12 93.3101 130.3 92.9101 130.66C92.5234 131.02 92.3301 131.467 92.3301 132C92.3301 132.6 92.5634 133.08 93.0301 133.44C93.4967 133.8 94.1501 133.98 94.9901 133.98C95.7901 133.98 96.4767 133.8 97.0501 133.44C97.6367 133.067 98.0634 132.533 98.3301 131.84L98.6501 132.82C98.3834 133.513 97.9167 134.067 97.2501 134.48C96.5967 134.893 95.7701 135.1 94.7701 135.1ZM107.967 135.1C106.927 135.1 105.994 134.873 105.167 134.42C104.354 133.953 103.714 133.32 103.247 132.52C102.78 131.707 102.547 130.78 102.547 129.74C102.547 128.687 102.78 127.76 103.247 126.96C103.714 126.16 104.354 125.533 105.167 125.08C105.994 124.627 106.927 124.4 107.967 124.4C108.86 124.4 109.667 124.573 110.387 124.92C111.107 125.267 111.674 125.787 112.087 126.48L111.027 127.2C110.667 126.667 110.22 126.273 109.687 126.02C109.154 125.767 108.574 125.64 107.947 125.64C107.2 125.64 106.527 125.813 105.927 126.16C105.327 126.493 104.854 126.967 104.507 127.58C104.16 128.193 103.987 128.913 103.987 129.74C103.987 130.567 104.16 131.287 104.507 131.9C104.854 132.513 105.327 132.993 105.927 133.34C106.527 133.673 107.2 133.84 107.947 133.84C108.574 133.84 109.154 133.713 109.687 133.46C110.22 133.207 110.667 132.82 111.027 132.3L112.087 133.02C111.674 133.7 111.107 134.22 110.387 134.58C109.667 134.927 108.86 135.1 107.967 135.1ZM115.84 132.28L115.88 130.46L122.42 124.5H124.16L119.54 128.92L118.74 129.6L115.84 132.28ZM114.72 135V120.16H116.14V135H114.72ZM122.86 135L118.48 129.54L119.4 128.44L124.6 135H122.86Z" fill="#AEAEAE"/>
<path d="M58.6696 76V74.164L69.1456 63.904C70.1056 62.968 70.8256 62.152 71.3056 61.456C71.7856 60.736 72.1096 60.064 72.2776 59.44C72.4456 58.816 72.5296 58.228 72.5296 57.676C72.5296 56.212 72.0256 55.06 71.0176 54.22C70.0336 53.38 68.5696 52.96 66.6256 52.96C65.1376 52.96 63.8176 53.188 62.6656 53.644C61.5376 54.1 60.5656 54.808 59.7496 55.768L57.9136 54.184C58.8976 53.032 60.1576 52.144 61.6936 51.52C63.2296 50.896 64.9456 50.584 66.8416 50.584C68.5456 50.584 70.0216 50.86 71.2696 51.412C72.5176 51.94 73.4776 52.72 74.1496 53.752C74.8456 54.784 75.1936 55.996 75.1936 57.388C75.1936 58.204 75.0736 59.008 74.8336 59.8C74.6176 60.592 74.2096 61.432 73.6096 62.32C73.0336 63.184 72.1816 64.168 71.0536 65.272L61.4416 74.704L60.7216 73.696H76.3456V76H58.6696ZM83.9906 76V51.88L85.1426 53.104H78.0506V50.8H86.5826V76H83.9906Z" fill="white"/>
</svg>
