<svg width="150" height="150" viewBox="0 0 150 150" fill="none" xmlns="http://www.w3.org/2000/svg">
<path d="M0 10C0 4.47715 4.47715 0 10 0H140C145.523 0 150 4.47715 150 10V140C150 145.523 145.523 150 140 150H10C4.47715 150 0 145.523 0 140V10Z" fill="#F0FFDE"/>
<path d="M102.147 8.78114C103.045 6.01721 106.955 6.01722 107.853 8.78115L112.184 22.1115C112.586 23.3475 113.738 24.1844 115.038 24.1844L129.054 24.1844C131.96 24.1844 133.168 27.9033 130.817 29.6115L119.478 37.85C118.426 38.614 117.986 39.9681 118.388 41.2041L122.719 54.5345C123.617 57.2984 120.454 59.5967 118.103 57.8885L106.763 49.65C105.712 48.886 104.288 48.886 103.237 49.65L91.8972 57.8886C89.5461 59.5968 86.3826 57.2984 87.2807 54.5344L91.612 41.2041C92.0136 39.9681 91.5736 38.614 90.5222 37.85L79.1827 29.6115C76.8316 27.9032 78.0399 24.1844 80.9461 24.1844L94.9624 24.1844C96.2621 24.1844 97.4139 23.3475 97.8156 22.1115L102.147 8.78114Z" fill="#73DCFF"/>
<path d="M102.147 58.7811C103.045 56.0172 106.955 56.0172 107.853 58.7812L112.184 72.1115C112.586 73.3475 113.738 74.1844 115.038 74.1844L129.054 74.1844C131.96 74.1844 133.168 77.9033 130.817 79.6115L119.478 87.85C118.426 88.614 117.986 89.9681 118.388 91.2041L122.719 104.534C123.617 107.298 120.454 109.597 118.103 107.889L106.763 99.65C105.712 98.886 104.288 98.886 103.237 99.65L91.8972 107.889C89.5461 109.597 86.3826 107.298 87.2807 104.534L91.612 91.2041C92.0136 89.9681 91.5736 88.614 90.5222 87.85L79.1827 79.6115C76.8316 77.9032 78.0399 74.1844 80.9461 74.1844L94.9624 74.1844C96.2621 74.1844 97.4139 73.3475 97.8156 72.1115L102.147 58.7811Z" fill="#73DCFF"/>
<path d="M42.1468 8.78114C43.0449 6.01721 46.9551 6.01722 47.8532 8.78115L52.1844 22.1115C52.5861 23.3475 53.7379 24.1844 55.0376 24.1844L69.0539 24.1844C71.9601 24.1844 73.1684 27.9033 70.8173 29.6115L59.4778 37.85C58.4264 38.614 57.9864 39.9681 58.388 41.2041L62.7193 54.5345C63.6174 57.2984 60.4539 59.5967 58.1028 57.8885L46.7634 49.65C45.7119 48.886 44.2881 48.886 43.2366 49.65L31.8972 57.8886C29.5461 59.5968 26.3826 57.2984 27.2807 54.5344L31.612 41.2041C32.0136 39.9681 31.5736 38.614 30.5222 37.85L19.1827 29.6115C16.8316 27.9032 18.0399 24.1844 20.9461 24.1844L34.9624 24.1844C36.2621 24.1844 37.4139 23.3475 37.8156 22.1115L42.1468 8.78114Z" fill="#73DCFF"/>
<path d="M42.1468 58.7811C43.0449 56.0172 46.9551 56.0172 47.8532 58.7812L52.1844 72.1115C52.5861 73.3475 53.7379 74.1844 55.0376 74.1844L69.0539 74.1844C71.9601 74.1844 73.1684 77.9033 70.8173 79.6115L59.4778 87.85C58.4264 88.614 57.9864 89.9681 58.388 91.2041L62.7193 104.534C63.6174 107.298 60.4539 109.597 58.1028 107.889L46.7634 99.65C45.7119 98.886 44.2881 98.886 43.2366 99.65L31.8972 107.889C29.5461 109.597 26.3826 107.298 27.2807 104.534L31.612 91.2041C32.0136 89.9681 31.5736 88.614 30.5222 87.85L19.1827 79.6115C16.8316 77.9032 18.0399 74.1844 20.9461 74.1844L34.9624 74.1844C36.2621 74.1844 37.4139 73.3475 37.8156 72.1115L42.1468 58.7811Z" fill="#73DCFF"/>
<path d="M71.6468 15.7812C72.5449 13.0172 76.4551 13.0172 77.3532 15.7812L86.287 43.2766C86.6886 44.5127 87.8405 45.3496 89.1402 45.3496H118.051C120.957 45.3496 122.165 49.0684 119.814 50.7766L96.4249 67.7697C95.3735 68.5337 94.9335 69.8878 95.3351 71.1238L104.269 98.6193C105.167 101.383 102.004 103.682 99.6524 101.973L76.2634 84.9803C75.2119 84.2163 73.7881 84.2163 72.7366 84.9803L49.3476 101.973C46.9965 103.682 43.833 101.383 44.7311 98.6193L53.6649 71.1238C54.0665 69.8878 53.6265 68.5337 52.5751 67.7697L29.1861 50.7766C26.8349 49.0684 28.0432 45.3496 30.9494 45.3496H59.8598C61.1595 45.3496 62.3114 44.5127 62.713 43.2766L71.6468 15.7812Z" fill="#87D134"/>
<path d="M38.7373 135.12C37.7373 135.12 36.784 134.96 35.8773 134.64C34.9707 134.307 34.2507 133.867 33.7173 133.32L34.4173 132.18C34.8573 132.647 35.4573 133.033 36.2173 133.34C36.9907 133.647 37.824 133.8 38.7173 133.8C39.904 133.8 40.804 133.54 41.4173 133.02C42.044 132.487 42.3573 131.793 42.3573 130.94C42.3573 130.34 42.2107 129.827 41.9173 129.4C41.6373 128.96 41.1573 128.62 40.4773 128.38C39.7973 128.14 38.864 128.02 37.6773 128.02H34.6973L35.4173 121H43.0773V122.28H35.9973L36.7373 121.58L36.1173 127.46L35.3773 126.74H37.9973C39.4107 126.74 40.544 126.913 41.3973 127.26C42.2507 127.607 42.864 128.093 43.2373 128.72C43.624 129.333 43.8173 130.053 43.8173 130.88C43.8173 131.667 43.6307 132.387 43.2573 133.04C42.884 133.68 42.324 134.187 41.5773 134.56C40.8307 134.933 39.884 135.12 38.7373 135.12ZM62.3598 121H63.8198V135H62.3598V121ZM53.5998 135H52.1198V121H53.5998V135ZM62.4998 128.54H53.4398V127.24H62.4998V128.54ZM74.6694 135V132.68L74.6094 132.3V128.42C74.6094 127.527 74.356 126.84 73.8494 126.36C73.356 125.88 72.616 125.64 71.6294 125.64C70.9494 125.64 70.3027 125.753 69.6894 125.98C69.076 126.207 68.556 126.507 68.1294 126.88L67.4894 125.82C68.0227 125.367 68.6627 125.02 69.4094 124.78C70.156 124.527 70.9427 124.4 71.7694 124.4C73.1294 124.4 74.176 124.74 74.9094 125.42C75.656 126.087 76.0294 127.107 76.0294 128.48V135H74.6694ZM71.0494 135.1C70.2627 135.1 69.576 134.973 68.9894 134.72C68.416 134.453 67.976 134.093 67.6694 133.64C67.3627 133.173 67.2094 132.64 67.2094 132.04C67.2094 131.493 67.336 131 67.5894 130.56C67.856 130.107 68.2827 129.747 68.8694 129.48C69.4694 129.2 70.2694 129.06 71.2694 129.06H74.8894V130.12H71.3094C70.296 130.12 69.5894 130.3 69.1894 130.66C68.8027 131.02 68.6094 131.467 68.6094 132C68.6094 132.6 68.8427 133.08 69.3094 133.44C69.776 133.8 70.4294 133.98 71.2694 133.98C72.0694 133.98 72.756 133.8 73.3294 133.44C73.916 133.067 74.3427 132.533 74.6094 131.84L74.9294 132.82C74.6627 133.513 74.196 134.067 73.5294 134.48C72.876 134.893 72.0494 135.1 71.0494 135.1ZM85.3063 135.1C84.3863 135.1 83.5596 134.893 82.8263 134.48C82.0929 134.053 81.5129 133.44 81.0863 132.64C80.6596 131.84 80.4463 130.873 80.4463 129.74C80.4463 128.593 80.6596 127.627 81.0863 126.84C81.5263 126.04 82.1129 125.433 82.8463 125.02C83.5796 124.607 84.3996 124.4 85.3063 124.4C86.3063 124.4 87.1996 124.627 87.9863 125.08C88.7863 125.52 89.4129 126.14 89.8663 126.94C90.3196 127.74 90.5463 128.673 90.5463 129.74C90.5463 130.793 90.3196 131.727 89.8663 132.54C89.4129 133.34 88.7863 133.967 87.9863 134.42C87.1996 134.873 86.3063 135.1 85.3063 135.1ZM79.8863 135V120.16H81.3063V127.6L81.1063 129.72L81.2463 131.84V135H79.8863ZM85.2063 133.84C85.9529 133.84 86.6196 133.673 87.2063 133.34C87.7929 132.993 88.2596 132.513 88.6063 131.9C88.9529 131.273 89.1263 130.553 89.1263 129.74C89.1263 128.913 88.9529 128.193 88.6063 127.58C88.2596 126.967 87.7929 126.493 87.2063 126.16C86.6196 125.813 85.9529 125.64 85.2063 125.64C84.4596 125.64 83.7863 125.813 83.1862 126.16C82.5996 126.493 82.1329 126.967 81.7863 127.58C81.4529 128.193 81.2863 128.913 81.2863 129.74C81.2863 130.553 81.4529 131.273 81.7863 131.9C82.1329 132.513 82.5996 132.993 83.1862 133.34C83.7863 133.673 84.4596 133.84 85.2063 133.84ZM93.4409 135V124.5H94.8609V135H93.4409ZM94.1609 122.18C93.8676 122.18 93.6209 122.08 93.4209 121.88C93.2209 121.68 93.1209 121.44 93.1209 121.16C93.1209 120.88 93.2209 120.647 93.4209 120.46C93.6209 120.26 93.8676 120.16 94.1609 120.16C94.4543 120.16 94.7009 120.253 94.9009 120.44C95.1009 120.627 95.2009 120.86 95.2009 121.14C95.2009 121.433 95.1009 121.68 94.9009 121.88C94.7143 122.08 94.4676 122.18 94.1609 122.18ZM102.132 135.1C101.145 135.1 100.385 134.833 99.852 134.3C99.3187 133.767 99.052 133.013 99.052 132.04V122.18H100.472V131.96C100.472 132.573 100.625 133.047 100.932 133.38C101.252 133.713 101.705 133.88 102.292 133.88C102.919 133.88 103.439 133.7 103.852 133.34L104.352 134.36C104.072 134.613 103.732 134.8 103.332 134.92C102.945 135.04 102.545 135.1 102.132 135.1ZM97.172 125.68V124.5H103.672V125.68H97.172ZM109.757 135.1C108.89 135.1 108.07 134.98 107.297 134.74C106.524 134.487 105.917 134.173 105.477 133.8L106.117 132.68C106.544 133 107.09 133.28 107.757 133.52C108.424 133.747 109.124 133.86 109.857 133.86C110.857 133.86 111.577 133.707 112.017 133.4C112.457 133.08 112.677 132.66 112.677 132.14C112.677 131.753 112.55 131.453 112.297 131.24C112.057 131.013 111.737 130.847 111.337 130.74C110.937 130.62 110.49 130.52 109.997 130.44C109.504 130.36 109.01 130.267 108.517 130.16C108.037 130.053 107.597 129.9 107.197 129.7C106.797 129.487 106.47 129.2 106.217 128.84C105.977 128.48 105.857 128 105.857 127.4C105.857 126.827 106.017 126.313 106.337 125.86C106.657 125.407 107.124 125.053 107.737 124.8C108.364 124.533 109.124 124.4 110.017 124.4C110.697 124.4 111.377 124.493 112.057 124.68C112.737 124.853 113.297 125.087 113.737 125.38L113.117 126.52C112.65 126.2 112.15 125.973 111.617 125.84C111.084 125.693 110.55 125.62 110.017 125.62C109.07 125.62 108.37 125.787 107.917 126.12C107.477 126.44 107.257 126.853 107.257 127.36C107.257 127.76 107.377 128.073 107.617 128.3C107.87 128.527 108.197 128.707 108.597 128.84C109.01 128.96 109.457 129.06 109.937 129.14C110.43 129.22 110.917 129.32 111.397 129.44C111.89 129.547 112.337 129.7 112.737 129.9C113.15 130.087 113.477 130.36 113.717 130.72C113.97 131.067 114.097 131.527 114.097 132.1C114.097 132.713 113.924 133.247 113.577 133.7C113.244 134.14 112.75 134.487 112.097 134.74C111.457 134.98 110.677 135.1 109.757 135.1Z" fill="#49B0D1"/>
</svg>
