<svg width="150" height="150" viewBox="0 0 150 150" fill="none" xmlns="http://www.w3.org/2000/svg">
<path d="M0 10C0 4.47715 4.47715 0 10 0H140C145.523 0 150 4.47715 150 10V140C150 145.523 145.523 150 140 150H10C4.47715 150 0 145.523 0 140V10Z" fill="#E6E6E6"/>
<path d="M71.6468 15.7812C72.5449 13.0172 76.4551 13.0172 77.3532 15.7812L86.287 43.2766C86.6886 44.5127 87.8405 45.3496 89.1402 45.3496H118.051C120.957 45.3496 122.165 49.0684 119.814 50.7766L96.4249 67.7697C95.3735 68.5337 94.9335 69.8878 95.3351 71.1238L104.269 98.6193C105.167 101.383 102.004 103.682 99.6524 101.973L76.2634 84.9803C75.2119 84.2163 73.7881 84.2163 72.7366 84.9803L49.3476 101.973C46.9965 103.682 43.833 101.383 44.7311 98.6193L53.6649 71.1238C54.0665 69.8878 53.6265 68.5337 52.5751 67.7697L29.1861 50.7766C26.8349 49.0684 28.0432 45.3496 30.9494 45.3496H59.8598C61.1595 45.3496 62.3114 44.5127 62.713 43.2766L71.6468 15.7812Z" fill="#898989"/>
<path d="M15.959 135L21.999 121.64L22.439 122.28H13.779L14.519 121.58V124.9H13.099V121H23.379V122.02L17.519 135H15.959ZM31.7507 135V121H37.4507C38.944 121 40.2507 121.3 41.3707 121.9C42.504 122.487 43.384 123.307 44.0107 124.36C44.6374 125.413 44.9507 126.627 44.9507 128C44.9507 129.373 44.6374 130.587 44.0107 131.64C43.384 132.693 42.504 133.52 41.3707 134.12C40.2507 134.707 38.944 135 37.4507 135H31.7507ZM33.2307 133.72H37.3707C38.6107 133.72 39.684 133.48 40.5907 133C41.5107 132.507 42.224 131.833 42.7307 130.98C43.2374 130.113 43.4907 129.12 43.4907 128C43.4907 126.867 43.2374 125.873 42.7307 125.02C42.224 124.167 41.5107 123.5 40.5907 123.02C39.684 122.527 38.6107 122.28 37.3707 122.28H33.2307V133.72ZM54.5541 135V132.68L54.4941 132.3V128.42C54.4941 127.527 54.2408 126.84 53.7341 126.36C53.2408 125.88 52.5008 125.64 51.5141 125.64C50.8341 125.64 50.1875 125.753 49.5741 125.98C48.9608 126.207 48.4408 126.507 48.0141 126.88L47.3741 125.82C47.9075 125.367 48.5475 125.02 49.2941 124.78C50.0408 124.527 50.8275 124.4 51.6541 124.4C53.0141 124.4 54.0608 124.74 54.7941 125.42C55.5408 126.087 55.9141 127.107 55.9141 128.48V135H54.5541ZM50.9341 135.1C50.1475 135.1 49.4608 134.973 48.8741 134.72C48.3008 134.453 47.8608 134.093 47.5541 133.64C47.2475 133.173 47.0941 132.64 47.0941 132.04C47.0941 131.493 47.2208 131 47.4741 130.56C47.7408 130.107 48.1675 129.747 48.7541 129.48C49.3541 129.2 50.1541 129.06 51.1541 129.06H54.7741V130.12H51.1941C50.1808 130.12 49.4741 130.3 49.0741 130.66C48.6875 131.02 48.4941 131.467 48.4941 132C48.4941 132.6 48.7275 133.08 49.1941 133.44C49.6608 133.8 50.3141 133.98 51.1541 133.98C51.9541 133.98 52.6408 133.8 53.2141 133.44C53.8008 133.067 54.2275 132.533 54.4941 131.84L54.8141 132.82C54.5475 133.513 54.0808 134.067 53.4141 134.48C52.7608 134.893 51.9341 135.1 50.9341 135.1ZM59.6557 138.98C59.1624 138.98 58.689 138.9 58.2357 138.74C57.7957 138.58 57.4157 138.34 57.0957 138.02L57.7557 136.96C58.0224 137.213 58.309 137.407 58.6157 137.54C58.9357 137.687 59.289 137.76 59.6757 137.76C60.1424 137.76 60.5424 137.627 60.8757 137.36C61.2224 137.107 61.549 136.653 61.8557 136L62.5357 134.46L62.6957 134.24L67.0157 124.5H68.4157L63.1557 136.26C62.8624 136.94 62.5357 137.48 62.1757 137.88C61.829 138.28 61.449 138.56 61.0357 138.72C60.6224 138.893 60.1624 138.98 59.6557 138.98ZM62.4557 135.3L57.6157 124.5H59.0957L63.3757 134.14L62.4557 135.3ZM73.1184 135.1C72.2517 135.1 71.4317 134.98 70.6584 134.74C69.885 134.487 69.2784 134.173 68.8384 133.8L69.4784 132.68C69.905 133 70.4517 133.28 71.1184 133.52C71.785 133.747 72.485 133.86 73.2184 133.86C74.2184 133.86 74.9384 133.707 75.3784 133.4C75.8184 133.08 76.0384 132.66 76.0384 132.14C76.0384 131.753 75.9117 131.453 75.6584 131.24C75.4184 131.013 75.0984 130.847 74.6984 130.74C74.2984 130.62 73.8517 130.52 73.3584 130.44C72.865 130.36 72.3717 130.267 71.8784 130.16C71.3984 130.053 70.9584 129.9 70.5584 129.7C70.1584 129.487 69.8317 129.2 69.5784 128.84C69.3384 128.48 69.2184 128 69.2184 127.4C69.2184 126.827 69.3784 126.313 69.6984 125.86C70.0184 125.407 70.485 125.053 71.0984 124.8C71.725 124.533 72.485 124.4 73.3784 124.4C74.0584 124.4 74.7384 124.493 75.4184 124.68C76.0984 124.853 76.6584 125.087 77.0984 125.38L76.4784 126.52C76.0117 126.2 75.5117 125.973 74.9784 125.84C74.445 125.693 73.9117 125.62 73.3784 125.62C72.4317 125.62 71.7317 125.787 71.2784 126.12C70.8384 126.44 70.6184 126.853 70.6184 127.36C70.6184 127.76 70.7384 128.073 70.9784 128.3C71.2317 128.527 71.5584 128.707 71.9584 128.84C72.3717 128.96 72.8184 129.06 73.2984 129.14C73.7917 129.22 74.2784 129.32 74.7584 129.44C75.2517 129.547 75.6984 129.7 76.0984 129.9C76.5117 130.087 76.8384 130.36 77.0784 130.72C77.3317 131.067 77.4584 131.527 77.4584 132.1C77.4584 132.713 77.285 133.247 76.9384 133.7C76.605 134.14 76.1117 134.487 75.4584 134.74C74.8184 134.98 74.0384 135.1 73.1184 135.1ZM88.3184 135V122.28H83.3984V121H94.7184V122.28H89.7984V135H88.3184ZM96.5093 135V124.5H97.8693V127.36L97.7293 126.86C98.0226 126.06 98.516 125.453 99.2093 125.04C99.9026 124.613 100.763 124.4 101.789 124.4V125.78C101.736 125.78 101.683 125.78 101.629 125.78C101.576 125.767 101.523 125.76 101.469 125.76C100.363 125.76 99.496 126.1 98.8693 126.78C98.2426 127.447 97.9293 128.4 97.9293 129.64V135H96.5093ZM110.179 135V132.68L110.119 132.3V128.42C110.119 127.527 109.866 126.84 109.359 126.36C108.866 125.88 108.126 125.64 107.139 125.64C106.459 125.64 105.812 125.753 105.199 125.98C104.586 126.207 104.066 126.507 103.639 126.88L102.999 125.82C103.532 125.367 104.172 125.02 104.919 124.78C105.666 124.527 106.452 124.4 107.279 124.4C108.639 124.4 109.686 124.74 110.419 125.42C111.166 126.087 111.539 127.107 111.539 128.48V135H110.179ZM106.559 135.1C105.772 135.1 105.086 134.973 104.499 134.72C103.926 134.453 103.486 134.093 103.179 133.64C102.872 133.173 102.719 132.64 102.719 132.04C102.719 131.493 102.846 131 103.099 130.56C103.366 130.107 103.792 129.747 104.379 129.48C104.979 129.2 105.779 129.06 106.779 129.06H110.399V130.12H106.819C105.806 130.12 105.099 130.3 104.699 130.66C104.312 131.02 104.119 131.467 104.119 132C104.119 132.6 104.352 133.08 104.819 133.44C105.286 133.8 105.939 133.98 106.779 133.98C107.579 133.98 108.266 133.8 108.839 133.44C109.426 133.067 109.852 132.533 110.119 131.84L110.439 132.82C110.172 133.513 109.706 134.067 109.039 134.48C108.386 134.893 107.559 135.1 106.559 135.1ZM119.756 135.1C118.716 135.1 117.783 134.873 116.956 134.42C116.143 133.953 115.503 133.32 115.036 132.52C114.569 131.707 114.336 130.78 114.336 129.74C114.336 128.687 114.569 127.76 115.036 126.96C115.503 126.16 116.143 125.533 116.956 125.08C117.783 124.627 118.716 124.4 119.756 124.4C120.649 124.4 121.456 124.573 122.176 124.92C122.896 125.267 123.463 125.787 123.876 126.48L122.816 127.2C122.456 126.667 122.009 126.273 121.476 126.02C120.943 125.767 120.363 125.64 119.736 125.64C118.989 125.64 118.316 125.813 117.716 126.16C117.116 126.493 116.643 126.967 116.296 127.58C115.949 128.193 115.776 128.913 115.776 129.74C115.776 130.567 115.949 131.287 116.296 131.9C116.643 132.513 117.116 132.993 117.716 133.34C118.316 133.673 118.989 133.84 119.736 133.84C120.363 133.84 120.943 133.713 121.476 133.46C122.009 133.207 122.456 132.82 122.816 132.3L123.876 133.02C123.463 133.7 122.896 134.22 122.176 134.58C121.456 134.927 120.649 135.1 119.756 135.1ZM127.629 132.28L127.669 130.46L134.209 124.5H135.949L131.329 128.92L130.529 129.6L127.629 132.28ZM126.509 135V120.16H127.929V135H126.509ZM134.649 135L130.269 129.54L131.189 128.44L136.389 135H134.649Z" fill="#AEAEAE"/>
<path d="M70.7004 76L81.5724 51.952L82.3644 53.104H66.7764L68.1084 51.844V57.82H65.5524V50.8H84.0564V52.636L73.5084 76H70.7004Z" fill="white"/>
</svg>
