<svg width="150" height="150" viewBox="0 0 150 150" fill="none" xmlns="http://www.w3.org/2000/svg">
<path d="M0 10C0 4.47715 4.47715 0 10 0H140C145.523 0 150 4.47715 150 10V140C150 145.523 145.523 150 140 150H10C4.47715 150 0 145.523 0 140V10Z" fill="#E3F8FF"/>
<path d="M91.6468 8.78115C92.5449 6.01722 96.4551 6.01722 97.3532 8.78115L106.287 36.2766C106.689 37.5127 107.84 38.3496 109.14 38.3496H138.051C140.957 38.3496 142.165 42.0684 139.814 43.7766L116.425 60.7697C115.373 61.5337 114.933 62.8878 115.335 64.1238L124.269 91.6193C125.167 94.3832 122.004 96.6816 119.652 94.9734L96.2634 77.9803C95.2119 77.2163 93.7881 77.2163 92.7366 77.9803L69.3476 94.9734C66.9965 96.6816 63.833 94.3832 64.7311 91.6193L73.6649 64.1238C74.0665 62.8878 73.6265 61.5337 72.5751 60.7697L49.1861 43.7766C46.8349 42.0684 48.0432 38.3496 50.9494 38.3496H79.8598C81.1595 38.3496 82.3114 37.5127 82.713 36.2766L91.6468 8.78115Z" fill="#FFCC40"/>
<path d="M52.6468 8.78115C53.5449 6.01722 57.4551 6.01722 58.3532 8.78115L67.287 36.2766C67.6886 37.5127 68.8405 38.3496 70.1402 38.3496H99.0506C101.957 38.3496 103.165 42.0684 100.814 43.7766L77.4249 60.7697C76.3735 61.5337 75.9335 62.8878 76.3351 64.1238L85.2689 91.6193C86.167 94.3832 83.0035 96.6816 80.6524 94.9734L57.2634 77.9803C56.2119 77.2163 54.7881 77.2163 53.7366 77.9803L30.3476 94.9734C27.9965 96.6816 24.833 94.3832 25.7311 91.6193L34.6649 64.1238C35.0665 62.8878 34.6265 61.5337 33.5751 60.7697L10.1861 43.7766C7.83491 42.0684 9.04324 38.3496 11.9494 38.3496H40.8598C42.1595 38.3496 43.3114 37.5127 43.713 36.2766L52.6468 8.78115Z" fill="#FFCC40"/>
<path d="M71.6468 15.7812C72.5449 13.0172 76.4551 13.0172 77.3532 15.7812L86.287 43.2766C86.6886 44.5127 87.8405 45.3496 89.1402 45.3496H118.051C120.957 45.3496 122.165 49.0684 119.814 50.7766L96.4249 67.7697C95.3735 68.5337 94.9335 69.8878 95.3351 71.1238L104.269 98.6193C105.167 101.383 102.004 103.682 99.6524 101.973L76.2634 84.9803C75.2119 84.2163 73.7881 84.2163 72.7366 84.9803L49.3476 101.973C46.9965 103.682 43.833 101.383 44.7311 98.6193L53.6649 71.1238C54.0665 69.8878 53.6265 68.5337 52.5751 67.7697L29.1861 50.7766C26.8349 49.0684 28.0432 45.3496 30.9494 45.3496H59.8598C61.1595 45.3496 62.3114 44.5127 62.713 43.2766L71.6468 15.7812Z" fill="#D1A21F"/>
<path d="M31.1758 135L37.2158 121.64L37.6558 122.28H28.9958L29.7358 121.58V124.9H28.3158V121H38.5958V122.02L32.7358 135H31.1758ZM39.7541 135L45.4941 127.24V128.38L40.0941 121H41.7941L46.3341 127.16L45.6741 127.18L50.2141 121H51.8141L46.4741 128.28V127.24L52.1941 135H50.4741L45.6341 128.42H46.2541L41.4541 135H39.7541ZM57.9991 135.12C56.9991 135.12 56.0457 134.96 55.1391 134.64C54.2324 134.307 53.5124 133.867 52.9791 133.32L53.6791 132.18C54.1191 132.647 54.7191 133.033 55.4791 133.34C56.2524 133.647 57.0857 133.8 57.9791 133.8C59.1657 133.8 60.0657 133.54 60.6791 133.02C61.3057 132.487 61.6191 131.793 61.6191 130.94C61.6191 130.34 61.4724 129.827 61.1791 129.4C60.8991 128.96 60.4191 128.62 59.7391 128.38C59.0591 128.14 58.1257 128.02 56.9391 128.02H53.9591L54.6791 121H62.3391V122.28H55.2591L55.9991 121.58L55.3791 127.46L54.6391 126.74H57.2591C58.6724 126.74 59.8057 126.913 60.6591 127.26C61.5124 127.607 62.1257 128.093 62.4991 128.72C62.8857 129.333 63.0791 130.053 63.0791 130.88C63.0791 131.667 62.8924 132.387 62.5191 133.04C62.1457 133.68 61.5857 134.187 60.8391 134.56C60.0924 134.933 59.1457 135.12 57.9991 135.12ZM74.1016 135V122.28H69.1816V121H80.5016V122.28H75.5816V135H74.1016ZM82.2925 135V124.5H83.6525V127.36L83.5125 126.86C83.8058 126.06 84.2992 125.453 84.9925 125.04C85.6858 124.613 86.5458 124.4 87.5725 124.4V125.78C87.5192 125.78 87.4658 125.78 87.4125 125.78C87.3592 125.767 87.3058 125.76 87.2525 125.76C86.1458 125.76 85.2792 126.1 84.6525 126.78C84.0258 127.447 83.7125 128.4 83.7125 129.64V135H82.2925ZM95.9623 135V132.68L95.9023 132.3V128.42C95.9023 127.527 95.649 126.84 95.1423 126.36C94.649 125.88 93.909 125.64 92.9223 125.64C92.2423 125.64 91.5957 125.753 90.9823 125.98C90.369 126.207 89.849 126.507 89.4223 126.88L88.7823 125.82C89.3157 125.367 89.9557 125.02 90.7023 124.78C91.449 124.527 92.2357 124.4 93.0623 124.4C94.4223 124.4 95.469 124.74 96.2023 125.42C96.949 126.087 97.3223 127.107 97.3223 128.48V135H95.9623ZM92.3423 135.1C91.5557 135.1 90.869 134.973 90.2823 134.72C89.709 134.453 89.269 134.093 88.9623 133.64C88.6557 133.173 88.5023 132.64 88.5023 132.04C88.5023 131.493 88.629 131 88.8823 130.56C89.149 130.107 89.5757 129.747 90.1623 129.48C90.7623 129.2 91.5623 129.06 92.5623 129.06H96.1823V130.12H92.6023C91.589 130.12 90.8823 130.3 90.4823 130.66C90.0957 131.02 89.9023 131.467 89.9023 132C89.9023 132.6 90.1357 133.08 90.6023 133.44C91.069 133.8 91.7223 133.98 92.5623 133.98C93.3623 133.98 94.049 133.8 94.6223 133.44C95.209 133.067 95.6357 132.533 95.9023 131.84L96.2223 132.82C95.9557 133.513 95.489 134.067 94.8223 134.48C94.169 134.893 93.3423 135.1 92.3423 135.1ZM105.539 135.1C104.499 135.1 103.566 134.873 102.739 134.42C101.926 133.953 101.286 133.32 100.819 132.52C100.353 131.707 100.119 130.78 100.119 129.74C100.119 128.687 100.353 127.76 100.819 126.96C101.286 126.16 101.926 125.533 102.739 125.08C103.566 124.627 104.499 124.4 105.539 124.4C106.433 124.4 107.239 124.573 107.959 124.92C108.679 125.267 109.246 125.787 109.659 126.48L108.599 127.2C108.239 126.667 107.793 126.273 107.259 126.02C106.726 125.767 106.146 125.64 105.519 125.64C104.773 125.64 104.099 125.813 103.499 126.16C102.899 126.493 102.426 126.967 102.079 127.58C101.733 128.193 101.559 128.913 101.559 129.74C101.559 130.567 101.733 131.287 102.079 131.9C102.426 132.513 102.899 132.993 103.499 133.34C104.099 133.673 104.773 133.84 105.519 133.84C106.146 133.84 106.726 133.713 107.259 133.46C107.793 133.207 108.239 132.82 108.599 132.3L109.659 133.02C109.246 133.7 108.679 134.22 107.959 134.58C107.239 134.927 106.433 135.1 105.539 135.1ZM113.413 132.28L113.453 130.46L119.993 124.5H121.733L117.113 128.92L116.313 129.6L113.413 132.28ZM112.293 135V120.16H113.713V135H112.293ZM120.433 135L116.053 129.54L116.973 128.44L122.173 135H120.433Z" fill="#49B0D1"/>
<path d="M70.7004 76L81.5724 51.952L82.3644 53.104H66.7764L68.1084 51.844V57.82H65.5524V50.8H84.0564V52.636L73.5084 76H70.7004Z" fill="white"/>
</svg>
