<svg width="150" height="150" viewBox="0 0 150 150" fill="none" xmlns="http://www.w3.org/2000/svg">
<path d="M0 10C0 4.47715 4.47715 0 10 0H140C145.523 0 150 4.47715 150 10V140C150 145.523 145.523 150 140 150H10C4.47715 150 0 145.523 0 140V10Z" fill="#E3F8FF"/>
<path d="M72.1468 15.7812C73.0449 13.0172 76.9551 13.0172 77.8532 15.7812L86.6747 42.9311C87.0763 44.1672 88.2282 45.0041 89.5279 45.0041H118.075C120.981 45.0041 122.19 48.7229 119.838 50.4311L96.7433 67.2107C95.6918 67.9747 95.2518 69.3288 95.6535 70.5648L104.475 97.7148C105.373 100.479 102.21 102.777 99.8585 101.069L76.7634 84.2893C75.7119 83.5254 74.2881 83.5254 73.2366 84.2893L50.1415 101.069C47.7904 102.777 44.6269 100.479 45.525 97.7148L54.3465 70.5648C54.7482 69.3287 54.3082 67.9746 53.2567 67.2107L30.1616 50.4311C27.8104 48.7229 29.0188 45.0041 31.9249 45.0041H60.4721C61.7718 45.0041 62.9236 44.1672 63.3253 42.9311L72.1468 15.7812Z" fill="#87D134"/>
<path d="M27.4184 127.78H34.8184V129.06H27.4184V127.78ZM27.5784 135H26.0984V121H35.6984V122.28H27.5784V135ZM38.4546 135V124.5H39.8746V135H38.4546ZM39.1746 122.18C38.8813 122.18 38.6346 122.08 38.4346 121.88C38.2346 121.68 38.1346 121.44 38.1346 121.16C38.1346 120.88 38.2346 120.647 38.4346 120.46C38.6346 120.26 38.8813 120.16 39.1746 120.16C39.4679 120.16 39.7146 120.253 39.9146 120.44C40.1146 120.627 40.2146 120.86 40.2146 121.14C40.2146 121.433 40.1146 121.68 39.9146 121.88C39.7279 122.08 39.4813 122.18 39.1746 122.18ZM43.8257 135V124.5H45.1857V127.36L45.0457 126.86C45.339 126.06 45.8324 125.453 46.5257 125.04C47.219 124.613 48.079 124.4 49.1057 124.4V125.78C49.0524 125.78 48.999 125.78 48.9457 125.78C48.8924 125.767 48.839 125.76 48.7857 125.76C47.679 125.76 46.8124 126.1 46.1857 126.78C45.559 127.447 45.2457 128.4 45.2457 129.64V135H43.8257ZM54.634 135.1C53.7673 135.1 52.9473 134.98 52.174 134.74C51.4007 134.487 50.794 134.173 50.354 133.8L50.994 132.68C51.4207 133 51.9673 133.28 52.634 133.52C53.3007 133.747 54.0007 133.86 54.734 133.86C55.734 133.86 56.454 133.707 56.894 133.4C57.334 133.08 57.554 132.66 57.554 132.14C57.554 131.753 57.4273 131.453 57.174 131.24C56.934 131.013 56.614 130.847 56.214 130.74C55.814 130.62 55.3673 130.52 54.874 130.44C54.3807 130.36 53.8873 130.267 53.394 130.16C52.914 130.053 52.474 129.9 52.074 129.7C51.674 129.487 51.3473 129.2 51.094 128.84C50.854 128.48 50.734 128 50.734 127.4C50.734 126.827 50.894 126.313 51.214 125.86C51.534 125.407 52.0007 125.053 52.614 124.8C53.2407 124.533 54.0007 124.4 54.894 124.4C55.574 124.4 56.254 124.493 56.934 124.68C57.614 124.853 58.174 125.087 58.614 125.38L57.994 126.52C57.5273 126.2 57.0273 125.973 56.494 125.84C55.9607 125.693 55.4273 125.62 54.894 125.62C53.9473 125.62 53.2473 125.787 52.794 126.12C52.354 126.44 52.134 126.853 52.134 127.36C52.134 127.76 52.254 128.073 52.494 128.3C52.7473 128.527 53.074 128.707 53.474 128.84C53.8873 128.96 54.334 129.06 54.814 129.14C55.3073 129.22 55.794 129.32 56.274 129.44C56.7673 129.547 57.214 129.7 57.614 129.9C58.0273 130.087 58.354 130.36 58.594 130.72C58.8473 131.067 58.974 131.527 58.974 132.1C58.974 132.713 58.8007 133.247 58.454 133.7C58.1207 134.14 57.6273 134.487 56.974 134.74C56.334 134.98 55.554 135.1 54.634 135.1ZM64.8996 135.1C63.9129 135.1 63.1529 134.833 62.6196 134.3C62.0863 133.767 61.8196 133.013 61.8196 132.04V122.18H63.2396V131.96C63.2396 132.573 63.3929 133.047 63.6996 133.38C64.0196 133.713 64.4729 133.88 65.0596 133.88C65.6863 133.88 66.2063 133.7 66.6196 133.34L67.1196 134.36C66.8396 134.613 66.4996 134.8 66.0996 134.92C65.7129 135.04 65.3129 135.1 64.8996 135.1ZM59.9396 125.68V124.5H66.4396V125.68H59.9396ZM77.959 135V122.28H73.039V121H84.359V122.28H79.439V135H77.959ZM86.1499 135V124.5H87.5099V127.36L87.3699 126.86C87.6633 126.06 88.1566 125.453 88.8499 125.04C89.5433 124.613 90.4033 124.4 91.4299 124.4V125.78C91.3766 125.78 91.3233 125.78 91.2699 125.78C91.2166 125.767 91.1633 125.76 91.1099 125.76C90.0033 125.76 89.1366 126.1 88.5099 126.78C87.8833 127.447 87.5699 128.4 87.5699 129.64V135H86.1499ZM99.8198 135V132.68L99.7598 132.3V128.42C99.7598 127.527 99.5064 126.84 98.9998 126.36C98.5064 125.88 97.7664 125.64 96.7798 125.64C96.0998 125.64 95.4531 125.753 94.8398 125.98C94.2264 126.207 93.7064 126.507 93.2798 126.88L92.6398 125.82C93.1731 125.367 93.8131 125.02 94.5598 124.78C95.3064 124.527 96.0931 124.4 96.9198 124.4C98.2798 124.4 99.3264 124.74 100.06 125.42C100.806 126.087 101.18 127.107 101.18 128.48V135H99.8198ZM96.1998 135.1C95.4131 135.1 94.7264 134.973 94.1398 134.72C93.5664 134.453 93.1264 134.093 92.8198 133.64C92.5131 133.173 92.3598 132.64 92.3598 132.04C92.3598 131.493 92.4864 131 92.7398 130.56C93.0064 130.107 93.4331 129.747 94.0198 129.48C94.6198 129.2 95.4198 129.06 96.4198 129.06H100.04V130.12H96.4598C95.4464 130.12 94.7398 130.3 94.3398 130.66C93.9531 131.02 93.7598 131.467 93.7598 132C93.7598 132.6 93.9931 133.08 94.4598 133.44C94.9264 133.8 95.5798 133.98 96.4198 133.98C97.2198 133.98 97.9064 133.8 98.4798 133.44C99.0664 133.067 99.4931 132.533 99.7598 131.84L100.08 132.82C99.8131 133.513 99.3464 134.067 98.6798 134.48C98.0264 134.893 97.1998 135.1 96.1998 135.1ZM109.397 135.1C108.357 135.1 107.423 134.873 106.597 134.42C105.783 133.953 105.143 133.32 104.677 132.52C104.21 131.707 103.977 130.78 103.977 129.74C103.977 128.687 104.21 127.76 104.677 126.96C105.143 126.16 105.783 125.533 106.597 125.08C107.423 124.627 108.357 124.4 109.397 124.4C110.29 124.4 111.097 124.573 111.817 124.92C112.537 125.267 113.103 125.787 113.517 126.48L112.457 127.2C112.097 126.667 111.65 126.273 111.117 126.02C110.583 125.767 110.003 125.64 109.377 125.64C108.63 125.64 107.957 125.813 107.357 126.16C106.757 126.493 106.283 126.967 105.937 127.58C105.59 128.193 105.417 128.913 105.417 129.74C105.417 130.567 105.59 131.287 105.937 131.9C106.283 132.513 106.757 132.993 107.357 133.34C107.957 133.673 108.63 133.84 109.377 133.84C110.003 133.84 110.583 133.713 111.117 133.46C111.65 133.207 112.097 132.82 112.457 132.3L113.517 133.02C113.103 133.7 112.537 134.22 111.817 134.58C111.097 134.927 110.29 135.1 109.397 135.1ZM117.27 132.28L117.31 130.46L123.85 124.5H125.59L120.97 128.92L120.17 129.6L117.27 132.28ZM116.15 135V120.16H117.57V135H116.15ZM124.29 135L119.91 129.54L120.83 128.44L126.03 135H124.29Z" fill="#49B0D1"/>
</svg>
