<svg width="431" height="164" viewBox="0 0 431 164" fill="none" xmlns="http://www.w3.org/2000/svg">
<path d="M129.216 54V20.96H116.224V14.8H149.488V20.96H136.496V54H129.216ZM154.952 54V14.8H171.08C174.552 14.8 177.52 15.36 179.984 16.48C182.485 17.6 184.408 19.2053 185.752 21.296C187.096 23.3867 187.768 25.8693 187.768 28.744C187.768 31.6187 187.096 34.1013 185.752 36.192C184.408 38.2453 182.485 39.832 179.984 40.952C177.52 42.0347 174.552 42.576 171.08 42.576H158.984L162.232 39.272V54H154.952ZM180.6 54L170.688 39.776H178.471L188.44 54H180.6ZM162.232 40.056L158.984 36.584H170.744C173.954 36.584 176.362 35.8933 177.967 34.512C179.61 33.1307 180.432 31.208 180.432 28.744C180.432 26.2427 179.61 24.32 177.967 22.976C176.362 21.632 173.954 20.96 170.744 20.96H158.984L162.232 17.376V40.056ZM190.368 54L208.008 14.8H215.176L232.872 54H225.256L210.08 18.664H212.992L197.872 54H190.368ZM198.488 44.928L200.448 39.216H221.616L223.576 44.928H198.488ZM255.455 54.56C252.468 54.56 249.687 54.0747 247.111 53.104C244.572 52.096 242.351 50.696 240.447 48.904C238.58 47.0747 237.124 44.928 236.079 42.464C235.034 40 234.511 37.312 234.511 34.4C234.511 31.488 235.034 28.8 236.079 26.336C237.124 23.872 238.599 21.744 240.503 19.952C242.407 18.1227 244.628 16.7227 247.167 15.752C249.706 14.744 252.487 14.24 255.511 14.24C258.722 14.24 261.652 14.8 264.303 15.92C266.954 17.0027 269.194 18.6267 271.023 20.792L266.319 25.216C264.9 23.6853 263.314 22.5467 261.559 21.8C259.804 21.016 257.9 20.624 255.847 20.624C253.794 20.624 251.908 20.96 250.191 21.632C248.511 22.304 247.036 23.256 245.767 24.488C244.535 25.72 243.564 27.176 242.855 28.856C242.183 30.536 241.847 32.384 241.847 34.4C241.847 36.416 242.183 38.264 242.855 39.944C243.564 41.624 244.535 43.08 245.767 44.312C247.036 45.544 248.511 46.496 250.191 47.168C251.908 47.84 253.794 48.176 255.847 48.176C257.9 48.176 259.804 47.8027 261.559 47.056C263.314 46.272 264.9 45.096 266.319 43.528L271.023 48.008C269.194 50.136 266.954 51.76 264.303 52.88C261.652 54 258.703 54.56 255.455 54.56ZM284.494 44.76L284.102 36.136L304.654 14.8H312.83L295.75 32.944L291.718 37.368L284.494 44.76ZM277.998 54V14.8H285.278V54H277.998ZM305.326 54L290.318 36.136L295.134 30.816L313.838 54H305.326Z" fill="#076585"/>
<g filter="url(#filter0_d_1_1700)">
<path d="M7 117.583C34.7667 70.3611 62.5333 70.3611 90.3 117.583C118.067 164.806 145.833 164.806 173.6 117.583C201.367 70.3611 229.133 70.3611 256.9 117.583C284.667 164.806 312.433 164.806 340.2 117.583C367.967 70.3611 395.733 70.3611 423.5 117.583" stroke="#076585" stroke-width="2"/>
</g>
<defs>
<filter id="filter0_d_1_1700" x="0.137978" y="79.1667" width="430.224" height="84.8333" filterUnits="userSpaceOnUse" color-interpolation-filters="sRGB">
<feFlood flood-opacity="0" result="BackgroundImageFix"/>
<feColorMatrix in="SourceAlpha" type="matrix" values="0 0 0 0 0 0 0 0 0 0 0 0 0 0 0 0 0 0 127 0" result="hardAlpha"/>
<feOffset dy="4"/>
<feGaussianBlur stdDeviation="3"/>
<feComposite in2="hardAlpha" operator="out"/>
<feColorMatrix type="matrix" values="0 0 0 0 0.0117647 0 0 0 0 0.203922 0 0 0 0 0.270588 0 0 0 0.35 0"/>
<feBlend mode="normal" in2="BackgroundImageFix" result="effect1_dropShadow_1_1700"/>
<feBlend mode="normal" in="SourceGraphic" in2="effect1_dropShadow_1_1700" result="shape"/>
</filter>
</defs>
</svg>
